<svg xmlns="http://www.w3.org/2000/svg" width="43" height="30" viewBox="0 0 43 30"><path fill="#fff" d="M43 26.13l-3.3 3.28a.73.73 0 0 1-1.03 0 .73.73 0 0 1 0-1.04L40.06 27h-9.64a8.13 8.13 0 0 1-6.71-4.2L16.36 7.53a6.7 6.7 0 0 0-5.44-3.4H.71a.7.7 0 0 1-.71-.7c0-.39.32-.7.71-.7h10.21c2.58 0 5.6 1.88 6.71 4.19l7.35 15.27a6.74 6.74 0 0 0 5.44 3.41h9.97l-1.72-1.71a.72.72 0 0 1 0-1.03.72.72 0 0 1 1.03 0zM22.23 13.24l-.78-1.63 2.26-4.68a8.14 8.14 0 0 1 6.71-4.2h9.75l-1.51-1.49a.74.74 0 0 1 0-1.03.75.75 0 0 1 1.04 0L43 3.48l-3.3 3.28a.73.73 0 0 1-1.03 0 .72.72 0 0 1 0-1.03l1.61-1.6h-9.86a6.73 6.73 0 0 0-5.44 3.4zm-5.87 8.96a6.7 6.7 0 0 1-5.44 3.4H.71a.7.7 0 0 0-.71.7c0 .39.32.7.71.7h10.21c2.58 0 5.6-1.88 6.71-4.2l2.26-4.68-.78-1.63z"/></svg>