<?xml version="1.0" encoding="utf-8"?>
<!-- Generator: Adobe Illustrator 16.0.3, SVG Export Plug-In . SVG Version: 6.00 Build 0)  -->
<!DOCTYPE svg PUBLIC "-//W3C//DTD SVG 1.1//EN" "http://www.w3.org/Graphics/SVG/1.1/DTD/svg11.dtd">
<svg version="1.1" id="Layer_1" xmlns="http://www.w3.org/2000/svg" xmlns:xlink="http://www.w3.org/1999/xlink" x="0px" y="0px"
	 width="568.873px" height="125.5px" viewBox="0 0 568.873 125.5" enable-background="new 0 0 568.873 125.5" xml:space="preserve">
<rect fill-rule="evenodd" clip-rule="evenodd" fill="#C5C5C5" width="568.873" height="125.5"/>
<g>
	<g>
		<path fill-rule="evenodd" clip-rule="evenodd" fill="#A6A6A6" d="M83.584,44.396l18.185-24.385c0,0,90.232,0,102.473,0
			s21.06,3.032,26.34,10.412c5.28,7.38,4.62,15.241,2.04,19.081s-12.66,17.514-12.66,17.514s-38.64,0-42.06,0
			s-4.92-1.258-2.64-4.314c2.28-3.06,9.48-12.901,10.32-14.22c0.451-0.709,0.868-2.014,0.301-2.902
			c-0.488-0.767-1.706-1.178-4.261-1.178C175.562,44.403,83.584,44.396,83.584,44.396z"/>
		<path fill-rule="evenodd" clip-rule="evenodd" fill="#A6A6A6" d="M112.501,50.703c0,0,38.64,0,42.72,0s5.34,0.061,6.06,1.2
			c0.72,1.14-0.3,2.64-1.98,4.86c-1.68,2.22-7.656,10.313-8.664,11.659c-1.008,1.344-1.776,2.783-0.96,3.791
			s3.024,1.201,5.424,1.201s60.096,0,60.096,0c-2.976,4.223-10.176,12.047-17.52,16.752c-7.344,4.703-18.432,9.791-32.832,9.791
			s-88.512,0-88.512,0L112.501,50.703z"/>
		<path fill-rule="evenodd" clip-rule="evenodd" fill="#A6A6A6" d="M232.338,73.232h51.864L264.625,99.82h-51.741L232.338,73.232z"
			/>
		<path fill-rule="evenodd" clip-rule="evenodd" fill="#A6A6A6" d="M307.586,73.232h51.857l-19.57,26.588h-51.74L307.586,73.232z"/>
		<path fill-rule="evenodd" clip-rule="evenodd" fill="#A6A6A6" d="M237.102,66.998l34.72-47.115h51.608l-19.807,27.184h23.279
			l20.16-27.072h51.695L364.15,67.029L237.102,66.998z"/>
		<path fill-rule="evenodd" clip-rule="evenodd" fill="#A6A6A6" d="M376.627,73.289h118.066l-19.871,26.762c0,0-73.49,0-82.172,0
			c-8.684,0-17.545-1.252-21.484-6.086c-3.938-4.834-3.133-9.398-0.178-13.068C373.941,77.227,376.627,73.289,376.627,73.289z"/>
		<path fill-rule="evenodd" clip-rule="evenodd" fill="#A6A6A6" d="M381.281,67.023l34.553-46.985h55.049l-34.82,46.985H381.281z"/>
		<polygon fill-rule="evenodd" clip-rule="evenodd" fill="#A6A6A6" points="568.84,73.289 504.398,73.289 500.363,78.742 
			568.854,78.742 		"/>
		<path fill-rule="evenodd" clip-rule="evenodd" fill="#A6A6A6" d="M484.598,100.051c8.682,0,84.31,0,84.31,0l-0.015-5.725h-80.06
			L484.598,100.051z"/>
		<polygon fill-rule="evenodd" clip-rule="evenodd" fill="#A6A6A6" points="496.594,83.838 492.484,89.392 568.881,89.392 
			568.866,83.838 		"/>
		<polygon fill-rule="evenodd" clip-rule="evenodd" fill="#A6A6A6" points="2.061,100.051 66.502,100.051 70.537,94.598 
			2.047,94.598 		"/>
		<path fill-rule="evenodd" clip-rule="evenodd" fill="#A6A6A6" d="M86.303,73.289c-8.682,0-84.31,0-84.31,0l0.015,5.725h80.06
			L86.303,73.289z"/>
		<polygon fill-rule="evenodd" clip-rule="evenodd" fill="#A6A6A6" points="74.307,89.502 78.416,83.948 2.02,83.948 2.034,89.502 
					"/>
	</g>
</g>
<g>
	<g>
		<path fill-rule="evenodd" clip-rule="evenodd" fill="#454545" d="M81.638,40.47l18.185-24.385c0,0,90.232,0,102.473,0
			s21.06,3.032,26.34,10.412c5.28,7.38,4.62,15.241,2.04,19.081s-12.66,17.52-12.66,17.52s-38.64,0-42.06,0s-4.92-1.26-2.64-4.32
			c2.28-3.06,9.48-12.901,10.32-14.22c0.451-0.709,0.868-2.014,0.301-2.902c-0.488-0.767-1.706-1.178-4.261-1.178
			C173.615,40.477,81.638,40.47,81.638,40.47z"/>
		<path fill-rule="evenodd" clip-rule="evenodd" fill="#454545" d="M110.555,46.777c0,0,38.64,0,42.72,0s5.34,0.061,6.06,1.2
			c0.72,1.14-0.3,2.64-1.98,4.86c-1.68,2.22-7.656,10.319-8.664,11.665c-1.008,1.344-1.776,2.783-0.96,3.791
			s3.024,1.201,5.424,1.201s60.096,0,60.096,0c-2.976,4.223-10.176,12.047-17.52,16.752c-7.344,4.703-18.432,9.791-32.832,9.791
			s-88.512,0-88.512,0L110.555,46.777z"/>
		<path fill-rule="evenodd" clip-rule="evenodd" fill="#454545" d="M230.391,69.313h51.856L262.678,95.9h-51.741L230.391,69.313z"/>
		<path fill-rule="evenodd" clip-rule="evenodd" fill="#454545" d="M305.631,69.313h51.857L337.918,95.9h-51.74L305.631,69.313z"/>
		<path fill-rule="evenodd" clip-rule="evenodd" fill="#454545" d="M235.155,63.078l34.72-47.121h51.6l-19.807,27.184h23.279
			l20.16-27.072h51.695l-34.607,47.04L235.155,63.078z"/>
		<path fill-rule="evenodd" clip-rule="evenodd" fill="#454545" d="M374.672,69.369h118.066l-19.871,26.762c0,0-73.49,0-82.172,0
			c-8.684,0-17.545-1.252-21.484-6.086c-3.938-4.834-3.133-9.398-0.178-13.068C371.986,73.307,374.672,69.369,374.672,69.369z"/>
		<path fill-rule="evenodd" clip-rule="evenodd" fill="#454545" d="M379.326,63.104l34.553-46.991h55.049l-34.82,46.991H379.326z"/>
		<polygon fill-rule="evenodd" clip-rule="evenodd" fill="#454545" points="566.885,69.369 502.443,69.369 498.408,74.822 
			566.898,74.822 		"/>
		<path fill-rule="evenodd" clip-rule="evenodd" fill="#454545" d="M482.643,96.131c8.682,0,84.31,0,84.31,0l-0.015-5.725h-80.06
			L482.643,96.131z"/>
		<polygon fill-rule="evenodd" clip-rule="evenodd" fill="#454545" points="494.639,79.918 490.529,85.472 566.926,85.472 
			566.911,79.918 		"/>
		<polygon fill-rule="evenodd" clip-rule="evenodd" fill="#454545" points="0.114,96.131 64.555,96.131 68.59,90.678 0.1,90.678 		
			"/>
		<path fill-rule="evenodd" clip-rule="evenodd" fill="#454545" d="M84.356,69.369c-8.682,0-84.31,0-84.31,0l0.015,5.725h80.06
			L84.356,69.369z"/>
		<polygon fill-rule="evenodd" clip-rule="evenodd" fill="#454545" points="72.36,85.582 76.469,80.028 0.073,80.028 0.087,85.582 
					"/>
	</g>
</g>
<g>
	<path d="M594.422-49.3v226.371H-28.8V-49.3H594.422 M594.622-49.5H-29v226.771h623.622V-49.5L594.622-49.5z"/>
</g>
</svg>
