<?xml version="1.0" encoding="UTF-8"?>
<svg width="286px" height="32px" viewBox="0 0 286 32" version="1.1" xmlns="http://www.w3.org/2000/svg" xmlns:xlink="http://www.w3.org/1999/xlink">
    <!-- Generator: Sketch 42 (36781) - http://www.bohemiancoding.com/sketch -->
    <title>Page 1</title>
    <desc>Created with Sketch.</desc>
    <defs></defs>
    <g id="Symbols" stroke="none" stroke-width="1" fill="none" fill-rule="evenodd">
        <g id="Header3" transform="translate(-207.000000, -81.000000)" fill="#333333">
            <g id="Page-1" transform="translate(207.000000, 81.000000)">
                <polygon id="Fill-1" points="124.846558 8.13345712 118.875628 8.13345712 118.875628 1.61542827 115.550047 1.61542827 115.550047 8.13345712 109.276791 8.13345712 109.276791 11.5074956 115.550047 11.5074956 115.550047 17.4126763 118.875628 17.4126763 118.875628 11.5074956 124.846558 11.5074956"></polygon>
                <g id="Group-22" transform="translate(0.000000, 0.409179)">
                    <path d="M4.44128372,2.27140269 C2.59467907,3.72407962 1.57765581,5.86137962 1.57765581,8.28884692 C1.57765581,13.6811738 5.75216744,15.0166796 7.7584,15.6589738 L7.83458605,15.6835123 C12.3011442,17.1147181 14.4724465,19.1514104 14.4724465,21.9107604 C14.4724465,27.2380604 9.73621395,27.2987931 9.53426047,27.2987931 C7.79528372,27.2987931 4.64142326,26.2424123 3.85235349,22.283745 L0.000120930235,23.07327 C1.12477209,28.7165027 5.7304,31.2862931 9.53426047,31.2862931 C13.0992837,31.2862931 18.4026791,28.7895046 18.4026791,21.9107604 C18.4026791,18.7072642 16.7749581,14.3664104 9.01788837,11.8812777 L8.94049302,11.8561258 C6.80486512,11.1727296 5.50788837,10.5917815 5.50788837,8.28884692 C5.50788837,7.08768923 5.95956279,6.12271423 6.8496093,5.42275462 C7.67435349,4.77371231 8.86067907,4.38661808 10.022214,4.38661808 C11.9758419,4.38661808 13.6761209,6.18774115 14.5159814,7.26129885 L17.5942605,4.78291423 C15.3842605,1.95608346 12.6947721,0.399118077 10.022214,0.399118077 C7.98816744,0.399118077 5.95412093,1.08190077 4.44128372,2.27140269" id="Fill-2"></path>
                    <polygon id="Fill-4" points="41.4046977 0.746153269 41.4046977 12.8233706 28.3291163 12.8233706 28.3291163 0.746153269 24.2477209 0.746153269 24.2477209 30.7296994 28.3291163 30.7296994 28.3291163 16.4280706 41.4046977 16.4280706 41.4046977 30.7296994 45.486093 30.7296994 45.486093 0.746153269"></polygon>
                    <path d="M55.5207628,15.6690346 C55.5207628,12.6035673 56.697414,9.721525 58.8342512,7.55355192 C60.9710884,5.38557885 63.8117395,4.19178269 66.8331814,4.19178269 C73.0707628,4.19178269 78.1456,9.34056538 78.1456,15.6690346 C78.1456,21.9981173 73.0707628,27.1469 66.8331814,27.1469 C60.5956,27.1469 55.5207628,21.9981173 55.5207628,15.6690346 M56.0552744,4.73408269 C53.1759256,7.65477308 51.5905302,11.5385981 51.5905302,15.6690346 C51.5905302,24.1967635 58.4285302,31.1344 66.8331814,31.1344 C75.2384372,31.1344 82.0758326,24.1967635 82.0758326,15.6690346 C82.0758326,7.14191923 75.2384372,0.204282692 66.8331814,0.204282692 C62.7614605,0.204282692 58.9340186,1.81277885 56.0552744,4.73408269" id="Fill-6"></path>
                    <path d="M95.5965581,4.73365327 C95.6425116,4.73365327 100.221535,4.84039558 100.359395,8.65060519 C100.364233,8.78249942 100.367256,8.91930135 100.367256,9.05917058 C100.367256,10.3867013 100.124791,12.0399802 99.1041395,13.1141513 C98.2957209,13.964409 97.0453023,14.3956725 95.3879535,14.3956725 L92.119814,14.3956725 L92.119814,4.73365327 L95.5965581,4.73365327 Z M88.1895814,0.746153269 L88.1895814,30.4996513 L92.119814,30.4996513 L92.119814,18.383786 L95.3879535,18.383786 C98.1149302,18.383786 100.378744,17.5181917 101.933302,15.8808629 C103.484837,14.2484417 104.297488,11.8982706 104.297488,9.05978404 C104.297488,8.87635904 104.29386,8.69170712 104.287209,8.50460135 C104.081023,2.81229173 98.9771628,0.746153269 95.5965581,0.746153269 L88.1895814,0.746153269 Z" id="Fill-8"></path>
                    <path d="M151.224465,12.4786052 C149.448,12.0571571 146.916326,11.7117783 146.916326,10.3695244 C146.916326,9.02788404 147.974465,8.2230225 150.279395,8.2230225 C152.58493,8.2230225 155.267767,10.3314898 155.267767,10.3314898 C155.267767,10.3314898 157.497721,4.73365327 157.951209,3.50673019 C156.364,2.47182058 154.209628,0.938166731 148.692186,0.938166731 C143.174744,0.938166731 137.052651,4.23490904 137.052651,11.2903302 C137.052651,18.3451379 144.079907,19.1923283 145.94707,19.570834 C147.814837,19.9493398 149.092465,19.9180533 149.092465,21.3081571 C149.092465,22.698261 148.375953,23.8350052 145.449442,23.8350052 C142.52293,23.8350052 139.004465,20.8339513 139.004465,20.8339513 L136.015674,28.1942629 C136.015674,28.1942629 140.75614,30.9210994 147.25614,30.9210994 C153.75614,30.9210994 158.858186,26.8188821 158.858186,20.3388879 C158.858186,13.8588937 153.000326,12.9000533 151.224465,12.4786052" id="Fill-10"></path>
                    <path d="M254.285623,12.4786052 C252.509158,12.0571571 249.977484,11.7117783 249.977484,10.3695244 C249.977484,9.02788404 251.035623,8.2230225 253.341158,8.2230225 C255.646088,8.2230225 258.328926,10.3314898 258.328926,10.3314898 C258.328926,10.3314898 260.558879,4.73365327 261.012367,3.50673019 C259.425158,2.47182058 257.270786,0.938166731 251.753949,0.938166731 C246.235902,0.938166731 240.114414,4.23490904 240.114414,11.2903302 C240.114414,18.3451379 247.141065,19.1923283 249.008228,19.570834 C250.875995,19.9493398 252.153623,19.9180533 252.153623,21.3081571 C252.153623,22.698261 251.437112,23.8350052 248.5106,23.8350052 C245.584088,23.8350052 242.065623,20.8339513 242.065623,20.8339513 L239.077437,28.1942629 C239.077437,28.1942629 243.817902,30.9210994 250.317902,30.9210994 C256.817298,30.9210994 261.919344,26.8188821 261.919344,20.3388879 C261.919344,13.8588937 256.062088,12.9000533 254.285623,12.4786052" id="Fill-12"></path>
                    <polygon id="Fill-14" points="160.898884 10.3569485 166.945395 10.3569485 166.945395 30.5508754 177.174279 30.5508754 177.174279 10.4078658 183.069628 10.4078658 183.069628 1.25747346 160.898884 1.25747346"></polygon>
                    <path d="M196.45993,14.8557687 L196.45993,9.10456673 L198.04714,9.10456673 C198.802953,9.10456673 201.335233,9.64134558 201.335233,11.597061 C201.335233,13.5521629 200.541326,14.8557687 196.45993,14.8557687 M204.938349,18.8954129 C206.500163,18.6905167 210.833698,18.2304206 210.833698,11.1240821 C210.833698,4.01835712 204.619093,1.36145519 200.391372,1.36145519 L186.324163,1.36145519 L186.324163,30.633386 L196.562116,30.633386 C196.562116,30.633386 196.550628,24.4233148 196.550628,20.7928494 C197.306442,21.8664071 200.604814,27.6372398 201.713744,30.6609917 L213.274674,30.6609917 C213.274674,30.6609917 210.481186,26.5121513 208.51607,23.6497398 C206.550953,20.7873283 206.147651,20.0205013 204.938349,18.8954129" id="Fill-16"></path>
                    <polygon id="Fill-18" points="226.087837 19.687085 234.137558 19.687085 234.137558 12.4016158 226.125326 12.4016158 226.125326 9.02757731 235.120116 9.02757731 235.120116 1.32127346 215.84686 1.32127346 215.84686 30.6612985 235.170907 30.6612985 235.170907 22.9077581 226.087837 22.9077581"></polygon>
                    <polygon id="Fill-20" points="276.589814 22.9077581 276.589814 19.687085 284.63893 19.687085 284.63893 12.4016158 276.627302 12.4016158 276.627302 9.02757731 285.621488 9.02757731 285.621488 1.32127346 266.348233 1.32127346 266.348233 30.6612985 285.672279 30.6612985 285.672279 22.9077581"></polygon>
                </g>
            </g>
        </g>
    </g>
</svg>