<?xml version="1.0" encoding="utf-8"?>
<!-- Generator: Adobe Illustrator 16.0.3, SVG Export Plug-In . SVG Version: 6.00 Build 0)  -->
<!DOCTYPE svg PUBLIC "-//W3C//DTD SVG 1.1//EN" "http://www.w3.org/Graphics/SVG/1.1/DTD/svg11.dtd">
<svg version="1.1" id="Layer_2" xmlns="http://www.w3.org/2000/svg" xmlns:xlink="http://www.w3.org/1999/xlink" x="0px" y="0px"
	 width="932.031px" height="242.85px" viewBox="0 0 932.031 242.85" enable-background="new 0 0 932.031 242.85"
	 xml:space="preserve">
<path display="none" fill="#C6C6C6" d="M877.847,218.307c-8.053,0-14.604,6.553-14.604,14.606v92.331
	c0,3.899,1.52,7.567,4.276,10.326c2.761,2.762,6.429,4.279,10.326,4.279h150.597c3.899,0,7.567-1.521,10.325-4.279
	c2.763-2.759,4.279-6.427,4.279-10.326v-92.331c0-8.057-6.553-14.606-14.604-14.606H877.847z"/>
<path display="none" fill="#FFFFFF" stroke="#000000" stroke-width="0.4" d="M1041.607,325.245c0,7.271-5.896,13.167-13.166,13.167
	H877.847c-7.27,0-13.166-5.896-13.166-13.167v-92.331c0-7.271,5.896-13.167,13.166-13.167h150.597
	c7.27,0,13.166,5.896,13.166,13.167L1041.607,325.245L1041.607,325.245z"/>
<path fill="#B3B3B3" d="M201.989,121.308c-8.056,0-14.607,6.553-14.607,14.604v92.332c0,3.9,1.52,7.568,4.278,10.326
	c2.759,2.763,6.427,4.279,10.329,4.279h150.592c3.901,0,7.571-1.521,10.329-4.279c2.76-2.758,4.276-6.426,4.276-10.326v-92.332
	c0-8.055-6.553-14.604-14.605-14.604H201.989z"/>
<path fill="#FFFFFF" stroke="#000000" stroke-width="0.4" d="M365.748,228.245c0,7.271-5.896,13.168-13.167,13.168H201.989
	c-7.272,0-13.167-5.896-13.167-13.168v-92.329c0-7.271,5.895-13.168,13.167-13.168h150.592c7.27,0,13.167,5.896,13.167,13.168
	V228.245z"/>
<path fill="#B3B3B3" d="M14.607,121.308C6.553,121.308,0,127.861,0,135.912v92.332c0,3.9,1.52,7.568,4.278,10.326
	c2.759,2.763,6.427,4.279,10.329,4.279h150.592c3.902,0,7.57-1.521,10.329-4.279c2.759-2.758,4.278-6.426,4.278-10.326v-92.332
	c0-8.055-6.553-14.604-14.607-14.604H14.607z"/>
<path fill="#FFFFFF" stroke="#000000" stroke-width="0.4" d="M178.366,228.245c0,7.271-5.895,13.168-13.167,13.168H14.607
	c-7.272,0-13.167-5.896-13.167-13.168v-92.329c0-7.271,5.895-13.168,13.167-13.168h150.592c7.272,0,13.167,5.896,13.167,13.168
	V228.245L178.366,228.245z"/>
<path fill="#B3B3B3" d="M388.832,121.308c-8.053,0-14.607,6.553-14.607,14.604v92.332c0,3.9,1.521,7.568,4.279,10.326
	c2.758,2.763,6.426,4.279,10.328,4.279h150.592c3.902,0,7.57-1.521,10.328-4.279c2.76-2.758,4.279-6.426,4.279-10.326v-92.332
	c0-8.055-6.556-14.604-14.607-14.604H388.832z"/>
<path fill="#FFFFFF" stroke="#000000" stroke-width="0.4" d="M552.591,228.245c0,7.271-5.896,13.168-13.168,13.168H388.832
	c-7.271,0-13.166-5.896-13.166-13.168v-92.329c0-7.271,5.895-13.168,13.166-13.168h150.592c7.271,0,13.168,5.896,13.168,13.168
	L552.591,228.245L552.591,228.245z"/>
<path fill="#B3B3B3" d="M578.164,121.308c-8.053,0-14.605,6.553-14.605,14.604v92.332c0,3.9,1.521,7.568,4.277,10.326
	c2.76,2.763,6.428,4.279,10.328,4.279h150.594c3.902,0,7.57-1.521,10.328-4.279c2.76-2.758,4.279-6.426,4.279-10.326v-92.332
	c0-8.055-6.556-14.604-14.607-14.604H578.164z"/>
<path fill="#FFFFFF" stroke="#000000" stroke-width="0.4" d="M741.923,228.245c0,7.271-5.895,13.168-13.166,13.168H578.164
	c-7.271,0-13.166-5.896-13.166-13.168v-92.329c0-7.271,5.895-13.168,13.166-13.168h150.594c7.271,0,13.166,5.896,13.166,13.168
	L741.923,228.245L741.923,228.245z"/>
<path fill="#B3B3B3" d="M766.83,120.445c-8.053,0-14.605,6.556-14.605,14.607v92.33c0,3.901,1.521,7.569,4.277,10.328
	c2.76,2.762,6.428,4.278,10.328,4.278h150.594c3.902,0,7.57-1.52,10.328-4.278c2.76-2.759,4.279-6.427,4.279-10.328v-92.33
	c0-8.056-6.556-14.607-14.607-14.607H766.83z"/>
<path fill="#FFFFFF" stroke="#000000" stroke-width="0.4" d="M930.589,227.386c0,7.27-5.895,13.166-13.166,13.166H766.83
	c-7.271,0-13.166-5.896-13.166-13.166v-92.332c0-7.271,5.895-13.166,13.166-13.166h150.594c7.271,0,13.166,5.896,13.166,13.166
	L930.589,227.386L930.589,227.386z"/>
<g>
	<path fill="#292929" d="M222.958,0.088h-33.201c-5.559,0-6.292,1.315-7.025,7.021c-0.728,5.704-9.799,62.604-10.822,69.039
		c-1.023,6.437-1.17,8.19,1.756,8.19h12.578c4.389,0,5.081-1.323,5.998-7.607c1.021-7.021,2.776-16.674,3.802-18.869
		c1.023-2.192,5.411-2.338,18.138-2.338c21.354-1.314,27.938-15.21,29.983-32.911C246.213,4.916,230.126,0.088,222.958,0.088z
		 M217.546,36.508c-4.683,3.22-6.582,3.071-19.16,3.071c0,0,2.193-16.676,3.07-19.893c0.88-3.217,1.021-3.51,4.974-3.51
		c3.95,0,12.873,0.729,14.335,4.532C222.226,24.513,222.226,33.291,217.546,36.508z"/>
	<path fill="#AAAAAA" d="M441.47,0.088h-33.205c-5.559,0-6.287,1.315-7.02,7.021c-0.733,5.705-9.801,62.604-10.824,69.039
		c-1.021,6.437-1.17,8.19,1.758,8.19h12.578c4.39,0,5.08-1.323,5.998-7.607c1.021-7.021,2.779-16.674,3.801-18.869
		c1.025-2.192,5.414-2.338,18.142-2.338c21.354-1.314,27.938-15.21,29.981-32.911C464.726,4.916,448.636,0.088,441.47,0.088z
		 M436.06,36.508c-4.682,3.22-6.582,3.071-19.166,3.071c0,0,2.195-16.676,3.076-19.893c0.875-3.217,1.021-3.51,4.972-3.51
		s12.868,0.729,14.336,4.532C440.74,24.513,440.74,33.291,436.06,36.508z"/>
	<path fill="#292929" d="M320.089,33.925c-1.685-4.333-1.712-5.992,2.57-5.992c4.275,0,9.271,0,12.27,0
		c2.996,0,4.138,0.144,5.853,5.708c1.712,5.563,7.848,25.97,7.848,25.97s17.122-24.543,18.978-27.968
		c1.854-3.425,4.28-3.854,6.139-3.854c1.854,0,9.561,0,12.27,0c2.713,0,4.707,1.429,1.711,5.854
		c-2.991,4.422-45.372,65.209-47.371,68.063c-1.998,2.854-3.14,2.281-5.85,2.281c-2.713,0-7.563,0-11.56,0
		c-3.994,0-3.994-1.999-1.854-5.137c2.138-3.141,14.269-20.263,14.269-20.263S321.087,36.49,320.089,33.925z"/>
	<path fill="#292929" d="M306.247,28.073h-10.563c-2.996,0-3.277,0.855-3.993,6.705c-4.563-6.563-9.703-7.986-18.404-7.986
		c-8.707,0-26.73,3.021-32.249,27.254c-5.141,22.544,11.129,31.532,23.396,31.532c12.273,0,20.122-8.134,20.122-8.134
		c-0.427,5.139-0.998,6.85,3.854,6.85h9.56c2.71,0,5.136-0.854,5.853-5.563c0.714-4.709,5.849-35.104,6.989-43.951
		C311.589,28.755,311.526,28.073,306.247,28.073z M289.067,55.006c-0.986,8.207-5.419,15.266-17.566,15.266
		c-11,0-12.477-9.686-11.162-15.923c1.315-6.238,7.717-12.313,16.416-12.313C284.962,42.036,290.05,46.796,289.067,55.006z"/>
	<path fill="#AAAAAA" d="M523.88,28.073h-10.557c-2.998,0-3.285,0.855-3.998,6.705c-4.566-6.563-9.703-7.986-18.408-7.986
		s-26.725,3.021-32.246,27.254c-5.141,22.544,11.129,31.532,23.4,31.532c12.27,0,20.119-8.134,20.119-8.134
		c-0.433,5.139-0.998,6.85,3.854,6.85h9.559c2.712,0,5.14-0.854,5.854-5.563s5.85-35.104,6.99-43.951
		C529.226,28.755,529.16,28.073,523.88,28.073z M506.699,55.006c-0.984,8.207-5.418,15.266-17.563,15.266
		c-11,0-12.479-9.686-11.166-15.923c1.314-6.238,7.715-12.313,16.418-12.313C502.595,42.036,507.687,46.796,506.699,55.006z"/>
	<path fill="#AAAAAA" d="M551.425,78.438c-0.695,4.535-1.268,5.947-5.754,5.947c-4.484,0-7.703,0-10.725,0
		c-3.023,0-3.023-1.659-2.242-6.438c0.775-4.774,11.018-70.597,11.604-74.303s1.656-3.706,3.607-3.706c1.947,0,11.309,0,13.357,0
		c2.047,0,2.241,1.271,1.854,4.39C562.74,7.447,552.009,74.636,551.425,78.438z"/>
</g>
<path fill="#292929" stroke="#000000" stroke-width="0.5" d="M404.953,159.722h-14.172c-2.373,0-2.688,0.563-3,2.998
	c-0.313,2.434-4.185,26.721-4.619,29.469c-0.439,2.746-0.5,3.496,0.75,3.496h5.369c1.873,0,2.168-0.564,2.561-3.248
	c0.438-2.996,1.188-7.117,1.623-8.053c0.438-0.939,2.31-0.998,7.742-0.998c9.115-0.564,11.924-6.492,12.797-14.051
	C414.878,161.782,408.011,159.722,404.953,159.722z M402.64,175.269c-1.998,1.373-2.809,1.311-8.178,1.311
	c0,0,0.937-7.116,1.312-8.489s0.438-1.498,2.122-1.498c1.688,0,5.494,0.313,6.119,1.936
	C404.638,170.148,404.638,173.894,402.64,175.269z"/>
<path fill="#AAAAAA" stroke="#000000" stroke-width="0.5" d="M498.224,159.722H484.05c-2.371,0-2.684,0.563-2.996,2.998
	c-0.313,2.434-4.184,26.721-4.619,29.469c-0.436,2.746-0.5,3.496,0.75,3.496h5.369c1.873,0,2.168-0.564,2.562-3.248
	c0.438-2.996,1.188-7.117,1.623-8.053c0.438-0.939,2.311-0.998,7.741-0.998c9.115-0.564,11.927-6.492,12.8-14.051
	C508.152,161.782,501.283,159.722,498.224,159.722z M495.916,175.269c-2,1.373-2.813,1.311-8.184,1.311c0,0,0.938-7.116,1.313-8.489
	c0.373-1.373,0.437-1.498,2.123-1.498c1.686,0,5.492,0.313,6.117,1.936C497.912,170.148,497.912,173.894,495.916,175.269z"/>
<path fill="#292929" stroke="#000000" stroke-width="0.5" d="M446.412,174.165c-0.719-1.851-0.73-2.56,1.098-2.56
	c1.826,0,3.957,0,5.236,0c1.277,0,1.766,0.062,2.498,2.438c0.729,2.375,3.35,11.086,3.35,11.086s7.308-10.479,8.101-11.939
	c0.791-1.461,1.828-1.645,2.618-1.645c0.794,0,4.08,0,5.238,0s2.01,0.606,0.73,2.498c-1.277,1.887-19.367,27.834-20.224,29.055
	c-0.854,1.217-1.34,0.973-2.498,0.973c-1.157,0-3.229,0-4.934,0s-1.705-0.854-0.791-2.19c0.912-1.34,6.09-8.648,6.09-8.648
	S446.837,175.261,446.412,174.165z"/>
<path fill="#292929" stroke="#000000" stroke-width="0.5" d="M440.503,171.667h-4.508c-1.279,0-1.4,0.364-1.705,2.86
	c-1.949-2.799-4.145-3.408-7.857-3.408c-3.715,0-11.409,1.289-13.764,11.636c-2.195,9.623,4.75,13.459,9.988,13.459
	c5.235,0,8.588-3.472,8.588-3.472c-0.184,2.191-0.428,2.925,1.645,2.925h4.082c1.156,0,2.191-0.365,2.496-2.378
	c0.306-2.012,2.498-14.981,2.984-18.762C442.783,171.96,442.757,171.667,440.503,171.667z M433.171,183.165
	c-0.422,3.504-2.313,6.516-7.5,6.516c-4.695,0-5.324-4.135-4.764-6.797c0.56-2.662,3.293-5.256,7.006-5.256
	C431.417,177.628,433.589,179.659,433.171,183.165z"/>
<path fill="#AAAAAA" stroke="#000000" stroke-width="0.5" d="M533.402,171.667h-4.511c-1.274,0-1.397,0.364-1.705,2.86
	c-1.946-2.799-4.143-3.408-7.854-3.408c-3.715,0-11.408,1.289-13.769,11.636c-2.19,9.623,4.75,13.459,9.988,13.459
	s8.59-3.472,8.59-3.472c-0.184,2.191-0.428,2.925,1.646,2.925h4.08c1.154,0,2.188-0.365,2.496-2.378
	c0.305-2.012,2.498-14.981,2.981-18.762C535.683,171.96,535.656,171.667,533.402,171.667z M526.068,183.165
	c-0.42,3.504-2.313,6.516-7.496,6.516c-4.695,0-5.326-4.135-4.769-6.797c0.564-2.662,3.295-5.256,7.008-5.256
	C524.318,177.628,526.49,179.659,526.068,183.165z"/>
<path fill="#AAAAAA" stroke="#000000" stroke-width="0.5" d="M545.16,193.167c-0.299,1.936-0.541,2.536-2.457,2.536
	c-1.914,0-3.287,0-4.576,0c-1.293,0-1.293-0.707-0.959-2.745c0.332-2.039,4.705-30.138,4.953-31.72
	c0.25-1.582,0.707-1.582,1.541-1.582c0.83,0,4.826,0,5.701,0c0.873,0,0.957,0.543,0.791,1.875S545.408,191.544,545.16,193.167z"/>
<g>
	<ellipse fill="#4F4F4F" cx="621.697" cy="181.458" rx="48.932" ry="48.689"/>
	<g>
		<path fill="#A9A9A9" d="M657.962,148.775h-6.949c-0.795,0.867-1.555,1.769-2.283,2.693h11.515
			C659.515,150.542,658.757,149.644,657.962,148.775z"/>
		<path fill="#A9A9A9" d="M662.613,154.749h-16.256c-0.578,0.881-1.13,1.776-1.65,2.696h19.563
			C663.744,156.527,663.195,155.63,662.613,154.749z"/>
		<path fill="#A9A9A9" d="M665.923,160.609h-22.875c-0.42,0.885-0.813,1.781-1.184,2.695h25.242
			C666.74,162.39,666.343,161.493,665.923,160.609z"/>
		<path fill="#A9A9A9" d="M668.261,166.472H640.71c-0.289,0.889-0.549,1.785-0.787,2.695h29.125
			C668.814,168.257,668.548,167.361,668.261,166.472z"/>
		<path fill="#A9A9A9" d="M669.753,172.255h-30.535c-0.17,0.891-0.313,1.791-0.436,2.698h31.408
			C670.072,174.046,669.925,173.146,669.753,172.255z"/>
		<path fill="#A9A9A9" d="M670.601,182.986h-32.688c0.024,0.906,0.082,1.806,0.158,2.697h32.371
			C670.521,184.79,670.574,183.892,670.601,182.986z"/>
		<path fill="#A9A9A9" d="M670.033,189.058h-11.668c0.145,0.906,0.309,1.807,0.504,2.695h10.662"/>
		<path fill="#A9A9A9" d="M668.751,194.847h-28.529c0.265,0.908,0.552,1.809,0.861,2.695h26.807
			C668.203,196.656,668.49,195.755,668.751,194.847z"/>
		<path fill="#A9A9A9" d="M666.652,200.705h-24.33c0.395,0.912,0.817,1.813,1.27,2.693h21.791
			C665.832,202.519,666.257,201.618,666.652,200.705z"/>
		<path fill="#A9A9A9" d="M663.625,206.564H645.35c0.562,0.918,1.144,1.818,1.755,2.693h14.768
			C662.484,208.386,663.068,207.482,663.625,206.564z"/>
		<path fill="#A9A9A9" d="M649.519,212.423c0.771,0.93,1.572,1.828,2.406,2.694h5.121c0.836-0.866,1.637-1.768,2.408-2.694H649.519z
			"/>
	</g>
	<g>
		<path fill="#A9A9A9" d="M687.277,132.767c-12.613,0-24.113,4.752-32.789,12.551c9.907,8.912,16.141,21.803,16.141,36.144
			c0,14.336-6.229,27.229-16.141,36.141c8.676,7.799,20.176,12.549,32.789,12.549c27.021,0,48.932-21.799,48.932-48.688
			C736.207,154.566,714.3,132.767,687.277,132.767z"/>
	</g>
	<g>
		<path fill="#A9A9A9" d="M728.119,211.269c0-1.313,1.074-2.396,2.401-2.396c1.318,0,2.4,1.081,2.4,2.396
			c0,1.32-1.082,2.402-2.4,2.402C729.193,213.671,728.119,212.589,728.119,211.269z M732.277,211.269c0-0.963-0.791-1.75-1.757-1.75
			c-0.975,0-1.758,0.787-1.758,1.75c0,0.971,0.783,1.756,1.758,1.756C731.486,213.023,732.277,212.24,732.277,211.269z
			 M731.634,212.47h-0.688l-0.515-1.066h-0.323v1.066h-0.613v-2.525h1.234c0.209,0,0.495,0.008,0.686,0.113
			c0.227,0.15,0.297,0.395,0.297,0.656c0,0.471-0.238,0.658-0.623,0.688L731.634,212.47z M730.708,210.964
			c0.225,0.006,0.383-0.049,0.383-0.31c0-0.27-0.291-0.27-0.49-0.27h-0.491v0.576L730.708,210.964L730.708,210.964z"/>
	</g>
	<g>
		<path fill="#FFFFFF" d="M728.205,191.601c0-1.313,1.072-2.396,2.402-2.396c1.315,0,2.399,1.084,2.399,2.396
			c0,1.318-1.084,2.4-2.399,2.4C729.277,194.001,728.205,192.919,728.205,191.601z M732.363,191.601c0-0.963-0.795-1.75-1.756-1.75
			c-0.978,0-1.759,0.787-1.759,1.75c0,0.967,0.781,1.754,1.759,1.754C731.568,193.355,732.363,192.568,732.363,191.601z
			 M731.72,192.802h-0.688l-0.515-1.066h-0.319v1.066h-0.615v-2.527h1.234c0.209,0,0.493,0.006,0.686,0.115
			c0.227,0.15,0.297,0.393,0.297,0.656c0,0.467-0.238,0.655-0.625,0.688L731.72,192.802z M730.794,191.294
			c0.225,0.006,0.383-0.05,0.383-0.31c0-0.27-0.293-0.27-0.494-0.27h-0.485v0.576L730.794,191.294L730.794,191.294z"/>
	</g>
	<polygon fill="#FFFFFF" points="577.441,193.72 582.117,193.72 584.91,177.515 585.818,193.591 591.208,193.591 597.771,177.97 
		595.107,193.656 599.656,193.656 603.486,172.003 595.238,172.003 589.847,184.58 589.132,172.132 581.207,172.132 	"/>
	<path fill="#FFFFFF" d="M611.412,175.958c-5.459,0-5.912,0.774-5.912,0.774l-1.17,3.957c1.623-0.584,4.877-1.162,6.561-1.039
		c2.668,0.199,2.472,1.816,2.275,2.789c-7.406-0.715-10.912,2.01-11.496,6.029c-0.588,4.018,2.66,5.51,4.937,5.51
		c2.271,0,4.414-0.52,5.391-2.203c0,1.49-0.26,1.813-0.26,1.813l4.352,0.131c0,0,1.104-6.354,2.082-11.086
		C619.138,177.902,616.867,175.958,611.412,175.958z M612.498,187.105c-0.371,1.432-1.377,3.178-3.979,3.178
		c-1.854,0-1.75-1.801-1.75-2.172c0-0.369,0.642-2.436,5.146-2.858C612.82,185.169,612.869,185.677,612.498,187.105z"/>
	<path fill="#FFFFFF" d="M693.101,175.958c-5.455,0-5.907,0.774-5.907,0.774l-1.17,3.957c1.622-0.584,4.877-1.162,6.561-1.039
		c2.67,0.199,2.469,1.816,2.275,2.789c-7.404-0.715-10.912,2.01-11.496,6.029c-0.588,4.018,2.662,5.51,4.936,5.51
		c2.274,0,4.416-0.52,5.392-2.203c0,1.49-0.261,1.813-0.261,1.813l4.354,0.131c0,0,1.104-6.354,2.078-11.086
		C700.832,177.902,698.558,175.958,693.101,175.958z M694.193,187.105c-0.371,1.432-1.382,3.178-3.979,3.178
		c-1.859,0-1.752-1.801-1.752-2.172c0-0.369,0.637-2.436,5.146-2.858C694.511,185.169,694.562,185.677,694.193,187.105z"/>
	<path fill="#FFFFFF" d="M631.117,179.958c0,0,0.639-1.113,1.01-3.863c-2.918-0.424-3.557-0.371-5.307-0.371
		s-7.373,0.207-7.373,5.348c0,6.246,6.313,4.605,6.313,7.252c0,2.33-3.078,1.804-3.977,1.804c-0.904,0-3.662-0.638-3.662-0.638
		l-0.639,3.549c0,0,1.696,0.847,6.262,0.847c4.563,0,7.268-2.013,7.268-5.877c0-3.863-2.016-4.129-4.668-5.188
		c-2.651-1.059-1.485-2.807-0.053-3.02C627.722,179.589,629.261,179.587,631.117,179.958z"/>
	<path fill="#FFFFFF" d="M638.31,179.822h2.886l0.643-3.824h-2.871c0.39-2.286,0.67-3.969,0.67-3.969l-4.471,0.002
		c0,0-2.414,13.174-3.053,17.355c-0.644,4.178,0.989,4.319,3.975,4.319c2.979,0,3.762-0.641,3.762-0.641s0.144-1.414,0.355-3.117
		c-1.209,0.355-3.906,0.854-3.336-1.979C637.126,186.665,637.734,183.195,638.31,179.822z"/>
	<path fill="#FFFFFF" d="M656.242,179.681c-0.854-2.976-3.193-3.969-7.027-3.969c-3.832,0-8.02,2.901-8.516,8.358
		c-0.496,5.453,1.563,9.635,8.869,9.635c2.842,0,5.323-0.852,5.323-0.852l0.709-4.25c0,0-1.563,1.771-5.75,1.344
		c-4.188-0.424-4.258-2.549-4.258-3.895c3.904,0,10.506,0.069,10.506,0.069S657.093,182.654,656.242,179.681z M652.072,182.71
		h-5.994c0.158-0.636,0.526-3.229,3.395-3.229S652.072,182.71,652.072,182.71z"/>
	<path fill="#FFFFFF" d="M660.898,193.794h-4.951l2.969-17.72h4.951l-0.424,2.683c0,0,1.625-3.316,5.655-2.683
		c-0.848,1.693-1.198,2.683-1.766,4.447c-2.193-0.143-4.316,0.988-4.74,2.822C662.167,185.183,660.898,193.794,660.898,193.794z"/>
	<path fill="#FFFFFF" d="M704.521,193.777h-4.948l2.973-17.719h4.951l-0.426,2.682c0,0,1.68-3.256,4.94-2.655
		c-0.229,1.188-0.367,1.741-0.688,4.036c-2.668,0-4.681,1.375-5.103,3.209C705.796,185.167,704.521,193.777,704.521,193.777z"/>
	<path fill="#FFFFFF" d="M684.66,177.275l0.85-4.66c0,0-2.123-1.196-5.588-1.196s-9.547,0.985-11.387,8.821
		c-1.842,7.834,0.918,12.07,5.516,13.199c4.599,1.131,7.642-0.424,7.992-0.986c0.354-0.563,0.779-4.446,0.779-4.446
		s-1.063,1.481-4.244,1.481c-3.187,0-6.438-2.328-5.308-7.201c1.134-4.868,3.324-6.354,7.283-6.354
		C682.751,175.933,684.66,177.275,684.66,177.275z"/>
	<path fill="#FFFFFF" d="M724.269,172.281c0,0-0.526,3.761-1.01,6.193c-0.848-1.271-2.385-2.383-3.924-2.383
		c-3.34,0-7.586,1.537-8.965,7.838c-1.379,6.299,1.75,9.367,4.397,9.897c2.654,0.529,4.675-0.157,5.894-1.748
		c0,0.849-0.213,1.644-0.213,1.644h4.723l3.766-21.549L724.269,172.281z M722.146,184.827c-0.477,3.23-2.702,5.189-4.454,4.979
		c-2-0.244-3.175-3.144-1.806-6.728c0.853-2.225,2.441-3.229,3.717-3.229C720.875,179.851,722.623,181.599,722.146,184.827z"/>
</g>
<g>
	<g>
		<g>
			<path fill="#393939" d="M241.442,156.755c0,0-13.017,33.557-13.604,35.139c0,0-0.624-3.023-1.469-7.115
				c-0.772-2.176-2.022-4.76-3.191-6.504c-1.555-2.32-2.851-4.434-6.754-8.166c-3.902-3.731-8.718-6.477-9.011-6.637
				c-0.039-0.021-0.082-0.039-0.127-0.051l12.307,44.629h14.646l21.813-51.295H241.442L241.442,156.755z"/>
			<polygon fill="#393939" points="253.055,208.08 266.86,208.08 275.534,156.734 261.698,156.734 			"/>
			<path fill="#393939" d="M309.823,181.103c-2.624-2.111-6.967-3.99-8.588-4.873c-1.624-0.885-5.527-2.508-5.527-5.236
				c0-2.729,3.373-4.514,8.523-4.514c4.995,0,9.432,1.594,11.056,2.604l1.873-11.072c-2.124-0.797-6.201-2.144-12.354-2.144
				c-6.146,0-13.256,1.627-17.573,5.277c-4.315,3.652-5.875,7.564-5.875,11.393c0,3.826,1.37,6.386,4.301,9.228
				c2.928,2.838,7.313,4.586,10.531,6.264c3.222,1.683,4.558,3.342,4.558,4.969c0,1.628-1.27,5.212-8.872,5.212
				c-7.605,0-12.195-2.563-14.302-3.529c0,0-1.662,9.742-1.938,11.438c0.942,0.451,6.579,2.72,15.812,2.72
				c9.23,0,15.347-3.063,18.583-6.074c3.234-3.012,5.104-6.611,5.104-11.578C315.138,186.21,312.445,183.218,309.823,181.103z"/>
			<path fill="#393939" d="M352.754,156.81c0,0-6.706,0-10.901,0c-4.192,0-5.896,1.756-6.984,4.078
				c-1.087,2.324-20.659,47.217-20.659,47.217h14.534l2.891-7.734h17.813l1.679,7.72h12.813L352.754,156.81z M335.608,189.894
				l7.429-19.373l4.211,19.373H335.608z"/>
		</g>
	</g>
	<path fill="#A7A7A7" d="M216.424,170.107c3.903,3.732,5.199,5.846,6.754,8.166c1.168,1.744,2.418,4.328,3.191,6.504
		c-1.66-8.043-4.172-20.209-4.463-21.643c-0.44-2.164-0.611-3.724-2.068-4.896c-1.456-1.174-3.084-1.49-5.232-1.49
		c-2.146,0-21.697,0-21.697,0l-0.182,1.025c0,0,2.289,0.465,6.253,1.875c3.965,1.41,7.156,3.164,8.309,3.771v0.002
		c0.045,0.012,0.088,0.028,0.127,0.051C207.706,163.632,212.521,166.374,216.424,170.107z"/>
</g>
<path fill="#666666" d="M619.673,28.608c-9.668,0-20.496,0-20.496,0l-9.479,54.913h13.729c0,0,2.246-9.688,3.746-18.521
	c3.332,0,25.832,3.833,30-15.167C641.511,30.053,629.339,28.608,619.673,28.608z M623.673,45.668c-0.467,4.812-1,7.667-7.834,8.333
	c-5,0.667-6.834,0-6.834,0l2.334-14.596c0,0,3.334,0,6.5,0S624.173,40.501,623.673,45.668z"/>
<polygon fill="#666666" points="648.076,28.314 661.773,28.314 654.748,72.395 671.958,72.571 669.851,83.811 639.119,83.811 "/>
<path fill="#666666" d="M684.425,28.14h13.349c0,0-4.214,24.412-5.093,33.367c-0.879,8.956,2.283,11.768,9.658,11.768
	c7.377,0,9.484-4.917,12.119-17.736c2.633-12.818,4.391-26.869,4.391-26.869h13.697c0,0-2.283,18.613-4.918,31.786
	c-2.633,13.173-6.848,24.411-27.746,24.411c-20.897,0-22.479-11.063-20.547-25.465C681.267,45,684.425,28.14,684.425,28.14z"/>
<path fill="#666666" d="M768.55,40.786l6.498-9.658c0,0-5.27-4.565-14.051-4.565s-19.844,3.514-23.185,16.859
	c-3.336,13.348,5.8,15.104,11.943,16.857c6.146,1.757,10.713,5.271,7.375,10.188c-3.336,4.917-9.658,5.094-19.494-1.933
	c-3.16,4.216-7.375,10.188-7.375,10.188s6.498,6.321,20.197,6.321c13.697,0,20.547-10.188,22.127-20.195
	c1.582-10.011-6.674-13.172-13.172-15.455c-6.498-2.284-8.605-5.795-5.271-9.834C757.479,35.519,766.265,39.206,768.55,40.786z"/>
<path fill="#A9A9A9" stroke="#808080" stroke-width="0.5" d="M889.505,138.667c0,0,5.5-10.166,6.668-16.666
	c-9.834,0-77.334,0-77.334,0s-13,14-14.834,31.666c-0.021,0.221-0.045,0.444-0.067,0.668h-17.267
	c-1.332,5.334-0.666,16.666-0.666,16.666l16.428,0.055c-0.313,4.873-0.467,9.785-0.327,14.611h-15.435c-1,9,0,17.666,0,17.666
	l17.691-0.064c0.428,1.668,0.899,3.313,1.477,4.898c14.834,0,35.834,0,35.834,0s-0.578-1.849-1.32-5.031l36.652-0.135v-17.334
	c0,0-18.805,0-39.445,0c-0.399-4.472-0.596-9.377-0.401-14.5l39.514,0.129v-16.961c0,0-17.479,0-37.336,0
	C846.029,127.517,876.226,132.273,889.505,138.667z"/>
<path fill="#2A2A2A" d="M931.279,207.001v21.243c0,7.271-5.896,13.168-13.166,13.168H767.519c-7.27,0-13.166-5.896-13.166-13.168
	v-21.243H931.279z"/>
<g>
	<path fill="#FFFFFF" d="M760.666,232.001v-17h3.453v14.094h8.625v2.906H760.666z"/>
	<path fill="#FFFFFF" d="M790.646,232.001h-3.762l-1.486-3.894h-6.852l-1.418,3.894h-3.67l6.666-17.144h3.662L790.646,232.001z
		 M784.283,225.204l-2.363-6.346l-2.313,6.346H784.283z"/>
	<path fill="#FFFFFF" d="M791.604,226.423l3.359-0.328c0.203,1.129,0.615,1.959,1.236,2.485c0.621,0.529,1.459,0.796,2.514,0.796
		c1.117,0,1.959-0.234,2.525-0.707c0.563-0.472,0.85-1.021,0.85-1.65c0-0.406-0.119-0.75-0.356-1.033
		c-0.236-0.283-0.65-0.531-1.244-0.74c-0.404-0.143-1.328-0.391-2.771-0.748c-1.854-0.459-3.158-1.021-3.906-1.69
		c-1.053-0.943-1.577-2.092-1.577-3.447c0-0.871,0.245-1.688,0.741-2.445c0.494-0.76,1.209-1.338,2.144-1.733
		c0.932-0.396,2.055-0.596,3.373-0.596c2.147,0,3.77,0.473,4.856,1.414c1.086,0.94,1.658,2.198,1.713,3.771l-3.452,0.156
		c-0.146-0.883-0.468-1.521-0.953-1.904c-0.486-0.387-1.222-0.58-2.193-0.58c-1.008,0-1.795,0.207-2.365,0.621
		c-0.364,0.266-0.549,0.621-0.549,1.064c0,0.403,0.17,0.754,0.514,1.041c0.438,0.366,1.494,0.75,3.181,1.146
		c1.682,0.396,2.926,0.807,3.729,1.23c0.808,0.424,1.438,1.004,1.896,1.737c0.455,0.736,0.684,1.646,0.684,2.729
		c0,0.979-0.271,1.897-0.817,2.756c-0.548,0.854-1.316,1.492-2.314,1.906c-0.998,0.418-2.24,0.625-3.729,0.625
		c-2.169,0-3.832-0.5-4.992-1.5C792.525,229.796,791.83,228.339,791.604,226.423z"/>
	<path fill="#FFFFFF" d="M812.32,232.001v-14.234h-5.078v-2.906h13.606v2.906h-5.078v14.234H812.32z"/>
	<path fill="#FFFFFF" d="M822.193,226.423l3.356-0.328c0.203,1.129,0.615,1.959,1.236,2.485c0.621,0.529,1.459,0.796,2.514,0.796
		c1.117,0,1.959-0.234,2.525-0.707c0.563-0.472,0.85-1.021,0.85-1.65c0-0.406-0.119-0.75-0.354-1.033
		c-0.238-0.283-0.654-0.531-1.246-0.74c-0.406-0.143-1.33-0.391-2.771-0.748c-1.854-0.459-3.158-1.021-3.905-1.69
		c-1.054-0.943-1.578-2.092-1.578-3.447c0-0.871,0.248-1.688,0.739-2.445c0.496-0.76,1.209-1.338,2.144-1.733
		c0.932-0.396,2.057-0.596,3.373-0.596c2.149,0,3.771,0.473,4.856,1.414c1.088,0.94,1.658,2.198,1.713,3.771l-3.45,0.156
		c-0.148-0.883-0.47-1.521-0.953-1.904c-0.488-0.385-1.222-0.58-2.195-0.58c-1.006,0-1.795,0.207-2.363,0.621
		c-0.364,0.266-0.551,0.621-0.551,1.064c0,0.403,0.172,0.754,0.515,1.041c0.438,0.366,1.495,0.75,3.18,1.146
		c1.682,0.396,2.926,0.807,3.729,1.23c0.81,0.424,1.439,1.004,1.896,1.737c0.455,0.736,0.684,1.646,0.684,2.729
		c0,0.979-0.271,1.897-0.815,2.756c-0.547,0.854-1.316,1.492-2.314,1.906c-0.998,0.418-2.242,0.625-3.729,0.625
		c-2.168,0-3.832-0.5-4.992-1.5C823.111,229.796,822.417,228.339,822.193,226.423z"/>
	<path fill="#FFFFFF" d="M849.986,225.704l3.356,1.063c-0.514,1.871-1.369,3.26-2.563,4.168c-1.195,0.908-2.711,1.361-4.549,1.361
		c-2.271,0-4.142-0.775-5.604-2.332c-1.463-1.554-2.193-3.681-2.193-6.375c0-2.853,0.734-5.064,2.205-6.646
		c1.474-1.58,3.404-2.367,5.806-2.367c2.092,0,3.793,0.619,5.1,1.859c0.779,0.73,1.363,1.785,1.752,3.156l-3.422,0.813
		c-0.203-0.889-0.625-1.59-1.268-2.104c-0.644-0.517-1.423-0.771-2.341-0.771c-1.268,0-2.297,0.455-3.086,1.367
		c-0.789,0.914-1.184,2.391-1.184,4.435c0,2.168,0.389,3.713,1.166,4.633c0.772,0.92,1.787,1.381,3.029,1.381
		c0.916,0,1.702-0.293,2.364-0.879C849.222,227.882,849.697,226.96,849.986,225.704z"/>
	<path fill="#FFFFFF" d="M856.333,232.001v-17.144h3.453v6.75h6.797v-6.75h3.453v17.144h-3.453v-7.484h-6.797v7.484H856.333z"/>
	<path fill="#FFFFFF" d="M873.619,232.001v-17.144h7.283c1.828,0,3.159,0.154,3.989,0.463c0.83,0.31,1.494,0.855,1.992,1.644
		s0.748,1.688,0.748,2.701c0,1.286-0.377,2.35-1.131,3.188s-1.883,1.365-3.383,1.584c0.746,0.438,1.359,0.916,1.848,1.438
		c0.486,0.521,1.142,1.45,1.963,2.782l2.095,3.345h-4.14l-2.487-3.736c-0.892-1.33-1.502-2.168-1.828-2.516
		c-0.328-0.347-0.679-0.582-1.047-0.712c-0.365-0.129-0.947-0.19-1.744-0.19h-0.705v7.154L873.619,232.001L873.619,232.001z
		 M877.072,222.109h2.563c1.662,0,2.701-0.067,3.115-0.209c0.412-0.141,0.736-0.383,0.971-0.725
		c0.234-0.345,0.354-0.771,0.354-1.285c0-0.576-0.154-1.041-0.465-1.396c-0.31-0.354-0.742-0.577-1.306-0.672
		c-0.28-0.039-1.125-0.059-2.526-0.059h-2.705L877.072,222.109L877.072,222.109z"/>
	<path fill="#FFFFFF" d="M890.796,232.001v-17.144h3.453v17.144H890.796z"/>
	<path fill="#FFFFFF" d="M897.556,232.001v-17.144h11.769v2.906h-8.314v4.047h7.172v2.906h-7.172V232L897.556,232.001
		L897.556,232.001z"/>
	<path fill="#FFFFFF" d="M916.037,232.001v-14.234h-5.078v-2.906h13.609v2.906h-5.078v14.234H916.037z"/>
</g>
<path fill="none" stroke="#000000" stroke-width="0.3" d="M83.005,125.972l-15.189,70.291l72.941,23.76
	c0,0,9.16-38.254,10.579-46.522c0.472-2.757,0.448-5.242,0.072-7.502c-0.626-3.767-2.227-6.9-4.129-9.593
	c-4.526-6.396-8.266-11.672-10.53-14.86c-1.503-2.117-2.355-3.316-2.355-3.316L83.005,125.972z"/>
<path fill="none" stroke="#000000" stroke-width="0.3" d="M134.393,138.226c2.264,3.189,8.359,11.781,12.885,18.18
	c1.902,2.689,3.503,5.826,4.129,9.593c-2.164-5.142-8.924-8.158-16.66-10.015C136.091,150.111,137.341,145.251,134.393,138.226z"/>
<g>
	<path fill="#2F2F2F" d="M92.691,140.64l-1.795-0.408l-0.263,1.156l2.003,0.457l-0.205,0.904l-3.105-0.709l1.113-4.878l3.002,0.688
		l-0.207,0.902l-1.902-0.437l-0.231,1.015l1.794,0.407L92.691,140.64z"/>
	<path fill="#2F2F2F" d="M96.787,143.605c-0.218,0.053-0.707,0.062-1.294-0.072c-1.686-0.387-2.313-1.641-1.994-3.035
		c0.38-1.663,1.776-2.313,3.253-1.977c0.571,0.131,0.979,0.346,1.152,0.49l-0.431,0.815c-0.195-0.145-0.486-0.303-0.884-0.395
		c-0.87-0.197-1.669,0.174-1.919,1.266c-0.223,0.98,0.215,1.729,1.192,1.949c0.341,0.076,0.717,0.096,0.963,0.051L96.787,143.605z"
		/>
	<path fill="#2F2F2F" d="M99.314,144.404c-1.439-0.33-2.044-1.612-1.727-3.004c0.334-1.463,1.524-2.342,2.957-2.014
		c1.498,0.342,2.059,1.647,1.752,2.994c-0.367,1.606-1.548,2.352-2.974,2.022L99.314,144.404L99.314,144.404z M99.566,143.54
		c0.745,0.17,1.333-0.437,1.55-1.39c0.2-0.877-0.041-1.725-0.801-1.895c-0.76-0.177-1.355,0.467-1.563,1.377
		c-0.21,0.92,0.069,1.735,0.807,1.903L99.566,143.54z"/>
	<path fill="#2F2F2F" d="M102.452,145.037l1.113-4.877l1.288,0.293l0.605,2.021c0.172,0.58,0.316,1.252,0.415,1.854l0.016,0.002
		c0.081-0.657,0.209-1.319,0.377-2.059l0.325-1.42l1.012,0.229l-1.112,4.875l-1.158-0.264l-0.612-2.119
		c-0.169-0.594-0.354-1.289-0.454-1.914l-0.029-0.008c-0.113,0.66-0.255,1.351-0.437,2.146l-0.335,1.469L102.452,145.037z"/>
	<path fill="#2F2F2F" d="M109.496,146.728c-1.439-0.328-2.044-1.617-1.727-3.004c0.333-1.463,1.523-2.342,2.957-2.016
		c1.497,0.342,2.059,1.647,1.752,2.995c-0.368,1.605-1.548,2.353-2.975,2.023L109.496,146.728L109.496,146.728z M109.747,145.863
		c0.746,0.172,1.332-0.434,1.551-1.389c0.199-0.877-0.042-1.723-0.801-1.896c-0.759-0.176-1.355,0.468-1.564,1.38
		c-0.209,0.92,0.069,1.733,0.808,1.901L109.747,145.863z"/>
	<path fill="#2F2F2F" d="M117.183,146.435c0.111-0.59,0.25-1.297,0.414-2.014l-0.015-0.004c-0.3,0.584-0.662,1.231-0.98,1.762
		l-1.028,1.768l-0.86-0.194l-0.093-2c-0.027-0.615-0.029-1.339-0.005-2.013l-0.014-0.002c-0.172,0.652-0.374,1.398-0.541,2
		l-0.517,1.832l-1.02-0.231l1.424-4.808l1.47,0.336l0.104,1.744c0.032,0.592,0.039,1.232,0.017,1.83l0.029,0.006
		c0.259-0.533,0.571-1.135,0.862-1.645l0.884-1.506l1.447,0.33l-0.852,4.938l-1.07-0.244L117.183,146.435z"/>
	<path fill="#2F2F2F" d="M119.883,149.015l0.456-1.998l-0.884-3.229l1.267,0.287l0.225,1.285c0.07,0.392,0.12,0.674,0.162,1.021
		l0.016,0.002c0.178-0.279,0.358-0.533,0.583-0.853l0.758-1.059l1.237,0.281l-2.255,2.479l-0.464,2.033L119.883,149.015z"/>
</g>
<g>
	<path d="M120.84,157.816c0.162,0.17,0.414,0.332,0.709,0.406c0.438,0.108,0.751-0.053,0.836-0.396
		c0.077-0.305-0.056-0.528-0.462-0.811c-0.492-0.334-0.756-0.701-0.64-1.164c0.129-0.518,0.653-0.795,1.298-0.633
		c0.334,0.084,0.566,0.225,0.688,0.344l-0.205,0.32c-0.087-0.09-0.286-0.24-0.586-0.313c-0.453-0.112-0.693,0.113-0.75,0.342
		c-0.077,0.312,0.087,0.515,0.5,0.806c0.506,0.36,0.72,0.696,0.599,1.186c-0.128,0.512-0.614,0.865-1.397,0.672
		c-0.32-0.08-0.644-0.268-0.792-0.428L120.84,157.816z"/>
	<path d="M124.083,156.185c-0.163-0.041-0.239-0.197-0.201-0.352c0.038-0.152,0.182-0.246,0.349-0.203
		c0.167,0.041,0.246,0.188,0.208,0.344c-0.039,0.152-0.179,0.254-0.351,0.211H124.083z M123.172,158.952l0.595-2.383l0.433,0.107
		l-0.596,2.383L123.172,158.952z"/>
	<path d="M126.449,159.398c-0.138,0.553-0.333,0.855-0.613,1.012c-0.29,0.15-0.643,0.144-0.943,0.066
		c-0.285-0.072-0.583-0.221-0.743-0.396l0.192-0.309c0.132,0.146,0.356,0.293,0.652,0.367c0.442,0.108,0.826-0.039,0.977-0.646
		l0.064-0.262l-0.01-0.004c-0.183,0.189-0.488,0.303-0.858,0.211c-0.59-0.146-0.889-0.756-0.723-1.42
		c0.202-0.811,0.841-1.129,1.394-0.992c0.413,0.104,0.582,0.369,0.641,0.594l0.01,0.005l0.103-0.353l0.384,0.096
		c-0.057,0.166-0.109,0.354-0.182,0.646L126.449,159.398z M126.289,158.193c0.018-0.065,0.029-0.135,0.023-0.195
		c-0.014-0.274-0.169-0.534-0.489-0.614c-0.414-0.105-0.796,0.172-0.935,0.729c-0.116,0.463,0.027,0.916,0.491,1.031
		c0.27,0.068,0.553-0.037,0.712-0.297c0.042-0.063,0.072-0.146,0.092-0.226L126.289,158.193z"/>
	<path d="M127.509,158.189c0.063-0.252,0.107-0.449,0.142-0.647l0.384,0.096l-0.072,0.396l0.009,0.002
		c0.173-0.19,0.505-0.346,0.899-0.248c0.33,0.084,0.792,0.408,0.588,1.228l-0.355,1.424l-0.433-0.107l0.343-1.375
		c0.095-0.385,0.034-0.743-0.375-0.848c-0.281-0.067-0.552,0.076-0.692,0.299c-0.033,0.052-0.063,0.125-0.08,0.195l-0.359,1.438
		l-0.433-0.107L127.509,158.189z"/>
	<path d="M133.007,160.718c-0.062,0.248-0.11,0.467-0.142,0.653l-0.385-0.096l0.073-0.395l-0.01-0.002
		c-0.156,0.164-0.475,0.352-0.898,0.244c-0.375-0.095-0.77-0.414-0.562-1.248l0.348-1.396l0.433,0.107l-0.328,1.313
		c-0.113,0.453-0.048,0.801,0.341,0.896c0.29,0.073,0.543-0.078,0.671-0.256c0.039-0.054,0.074-0.13,0.095-0.212l0.364-1.457
		l0.433,0.105L133.007,160.718z"/>
	<path d="M133.965,159.943c0.076-0.307,0.132-0.555,0.174-0.783l0.389,0.099l-0.078,0.414l0.01,0.002
		c0.245-0.25,0.573-0.347,0.957-0.25c0.581,0.145,0.892,0.739,0.712,1.463c-0.214,0.854-0.847,1.147-1.403,1.012
		c-0.319-0.08-0.557-0.287-0.64-0.559l-0.01-0.004l-0.324,1.297l-0.433-0.109L133.965,159.943z M134.239,160.687
		c-0.016,0.062-0.026,0.123-0.024,0.182c-0.001,0.318,0.213,0.595,0.518,0.67c0.458,0.113,0.817-0.192,0.953-0.739
		c0.12-0.479-0.024-0.947-0.483-1.063c-0.295-0.074-0.627,0.063-0.792,0.365c-0.023,0.059-0.055,0.119-0.068,0.172L134.239,160.687z
		"/>
</g>
<line fill="none" stroke="#000000" x1="85.488" y1="158.95" x2="107.038" y2="163.958"/>
<line fill="none" stroke="#000000" x1="84.387" y1="161.97" x2="105.937" y2="166.978"/>
<line fill="none" stroke="#000000" x1="118.819" y1="166.829" x2="140.37" y2="171.837"/>
<line fill="none" stroke="#000000" x1="120.288" y1="162.804" x2="141.838" y2="167.81"/>
<line fill="none" stroke="#000000" x1="117.719" y1="169.849" x2="139.269" y2="174.855"/>
<path fill="none" stroke="#000000" stroke-width="0.4" d="M77.195,194.982l6.911-25.988c0,0,52.96,11.9,55.317,12.478
	c-2.069,10.363-7.42,32.072-7.42,32.072L77.195,194.982z"/>
<line fill="none" stroke="#000000" stroke-width="0.4" x1="80.433" y1="182.193" x2="136.002" y2="194.761"/>
<line fill="none" stroke="#000000" stroke-width="0.4" x1="78.276" y1="189.673" x2="134.392" y2="203.865"/>
<path fill="#CCCCCC" stroke="#000000" stroke-width="0.4" d="M138.142,187.603c-7.069-1.725-55.691-12.426-55.691-12.426
	l1.656-6.185l55.317,12.476L138.142,187.603z"/>
<g>
	<path d="M86.011,172.212c0.149,0.01,0.319,0.026,0.503,0.065c0.332,0.07,0.553,0.193,0.679,0.375
		c0.131,0.183,0.18,0.408,0.118,0.699s-0.205,0.51-0.405,0.643c-0.206,0.132-0.501,0.162-0.85,0.091
		c-0.167-0.035-0.301-0.068-0.418-0.111L86.011,172.212z M85.91,173.849c0.057,0.021,0.141,0.041,0.231,0.061
		c0.494,0.107,0.822-0.114,0.924-0.6c0.094-0.43-0.091-0.742-0.579-0.846c-0.12-0.023-0.213-0.033-0.277-0.031L85.91,173.849z"/>
	<path d="M87.68,173.781c-0.062,0.316,0.109,0.49,0.344,0.539c0.167,0.035,0.276,0.027,0.37,0.013l0.008,0.176
		c-0.091,0.02-0.244,0.033-0.449-0.011c-0.394-0.084-0.577-0.396-0.496-0.78c0.083-0.394,0.379-0.648,0.753-0.568
		c0.421,0.088,0.451,0.48,0.401,0.719c-0.01,0.05-0.021,0.084-0.032,0.109L87.68,173.781z M88.398,173.757
		c0.034-0.146,0.02-0.394-0.241-0.445c-0.239-0.051-0.387,0.146-0.439,0.305L88.398,173.757z"/>
	<path d="M88.769,174.396c0.063,0.059,0.175,0.131,0.292,0.156c0.167,0.033,0.264-0.029,0.287-0.142
		c0.023-0.108-0.03-0.188-0.186-0.286c-0.216-0.136-0.298-0.281-0.267-0.438c0.044-0.207,0.25-0.34,0.524-0.283
		c0.13,0.027,0.237,0.086,0.297,0.146l-0.091,0.153c-0.044-0.039-0.127-0.104-0.247-0.131c-0.138-0.026-0.23,0.035-0.25,0.131
		c-0.023,0.109,0.041,0.175,0.195,0.271c0.203,0.129,0.297,0.266,0.255,0.461c-0.048,0.229-0.26,0.352-0.561,0.287
		c-0.141-0.029-0.263-0.098-0.342-0.168L88.769,174.396z"/>
	<path d="M90.73,175.011c-0.067,0.016-0.213,0.031-0.385-0.004c-0.389-0.082-0.585-0.398-0.501-0.797
		c0.083-0.396,0.417-0.627,0.836-0.539c0.138,0.028,0.253,0.092,0.309,0.139l-0.09,0.166c-0.049-0.039-0.13-0.09-0.258-0.119
		c-0.295-0.063-0.501,0.125-0.558,0.396c-0.063,0.299,0.089,0.521,0.345,0.575c0.133,0.027,0.227,0.017,0.3,0L90.73,175.011z"/>
	<path d="M91.185,174.228c0.032-0.148,0.056-0.281,0.074-0.4l0.205,0.043l-0.043,0.255l0.008,0.002
		c0.095-0.16,0.261-0.238,0.418-0.205c0.024,0.006,0.042,0.01,0.063,0.02l-0.047,0.219c-0.026-0.01-0.049-0.016-0.082-0.021
		c-0.165-0.035-0.308,0.063-0.376,0.229c-0.013,0.033-0.023,0.068-0.032,0.109l-0.146,0.687l-0.234-0.052L91.185,174.228z"/>
	<path d="M92.308,173.8c-0.087-0.021-0.131-0.101-0.114-0.183c0.017-0.084,0.092-0.137,0.183-0.116c0.091,0.02,0.135,0.1,0.118,0.18
		c-0.017,0.084-0.091,0.141-0.184,0.121L92.308,173.8z M91.875,175.3l0.272-1.287l0.234,0.051l-0.272,1.287L91.875,175.3z"/>
	<path d="M92.68,174.564c0.035-0.166,0.061-0.299,0.079-0.424l0.21,0.045l-0.035,0.225l0.006,0.002
		c0.126-0.141,0.3-0.196,0.507-0.153c0.314,0.065,0.492,0.381,0.409,0.771c-0.098,0.461-0.431,0.631-0.732,0.568
		c-0.172-0.037-0.302-0.146-0.353-0.287l-0.005-0.002l-0.148,0.699l-0.234-0.049L92.68,174.564z M92.841,174.955
		c-0.007,0.031-0.011,0.066-0.01,0.101c0.005,0.17,0.125,0.313,0.29,0.348c0.248,0.056,0.433-0.119,0.496-0.414
		c0.054-0.26-0.032-0.508-0.279-0.561c-0.159-0.033-0.335,0.047-0.417,0.213c-0.012,0.029-0.027,0.063-0.034,0.094L92.841,174.955z"
		/>
	<path d="M94.629,174.216l-0.065,0.311l0.335,0.07l-0.039,0.178l-0.334-0.067l-0.147,0.69c-0.034,0.16-0.007,0.26,0.123,0.287
		c0.064,0.014,0.103,0.018,0.139,0.014l-0.027,0.181c-0.049,0.008-0.124,0.01-0.214-0.013c-0.109-0.022-0.188-0.077-0.231-0.151
		c-0.049-0.084-0.051-0.203-0.019-0.355l0.149-0.701l-0.2-0.043l0.037-0.178l0.2,0.043l0.05-0.233L94.629,174.216z"/>
	<path d="M95.323,174.439c-0.087-0.02-0.131-0.104-0.114-0.184c0.018-0.082,0.093-0.138,0.183-0.117
		c0.09,0.02,0.135,0.098,0.117,0.182c-0.018,0.082-0.091,0.14-0.184,0.119H95.323z M94.889,175.939l0.272-1.287l0.234,0.051
		l-0.272,1.285L94.889,175.939z"/>
	<path d="M96.029,176.21c-0.346-0.072-0.563-0.39-0.478-0.793c0.091-0.433,0.43-0.623,0.783-0.55c0.37,0.078,0.563,0.398,0.48,0.791
		c-0.102,0.479-0.478,0.615-0.783,0.552H96.029z M96.074,176.036c0.223,0.048,0.435-0.129,0.497-0.422
		c0.047-0.217-0.004-0.514-0.281-0.571c-0.273-0.06-0.447,0.172-0.499,0.418c-0.06,0.278,0.055,0.526,0.281,0.575H96.074
		L96.074,176.036z"/>
	<path d="M97.169,175.439c0.029-0.135,0.049-0.242,0.063-0.352l0.208,0.045l-0.031,0.213l0.005,0.002
		c0.09-0.105,0.264-0.193,0.476-0.148c0.178,0.037,0.433,0.201,0.339,0.646l-0.162,0.768l-0.234-0.049l0.157-0.742
		c0.043-0.207,0.003-0.397-0.217-0.442c-0.151-0.031-0.294,0.053-0.364,0.172c-0.017,0.026-0.031,0.065-0.039,0.104l-0.165,0.775
		l-0.234-0.051L97.169,175.439z"/>
</g>
<g>
	<path d="M112.988,180.109c-0.193-0.106-0.379-0.225-0.542-0.332c-0.032-0.02-0.059-0.039-0.087-0.047
		c-0.364-0.109-0.604-0.461-0.474-0.957c0.129-0.492,0.512-0.729,0.926-0.623c0.42,0.111,0.606,0.506,0.488,0.961
		c-0.104,0.396-0.353,0.599-0.632,0.621l-0.003,0.01c0.144,0.078,0.299,0.16,0.424,0.218L112.988,180.109z M112.426,179.573
		c0.315,0.084,0.569-0.16,0.661-0.51c0.081-0.309,0.004-0.666-0.322-0.752c-0.335-0.088-0.581,0.178-0.668,0.512
		c-0.085,0.326,0.015,0.666,0.327,0.75H112.426z"/>
	<path d="M114.35,179.904c-0.03,0.113-0.054,0.215-0.07,0.304l-0.177-0.046l0.035-0.186l-0.004-0.002
		c-0.074,0.078-0.224,0.162-0.419,0.109c-0.173-0.046-0.355-0.197-0.254-0.584l0.17-0.646l0.201,0.051l-0.16,0.609
		c-0.055,0.211-0.027,0.371,0.154,0.418c0.135,0.035,0.252-0.033,0.313-0.115c0.019-0.021,0.035-0.059,0.045-0.098l0.177-0.676
		l0.201,0.053L114.35,179.904z"/>
	<path d="M115.451,180.232c-0.025,0.096-0.045,0.189-0.053,0.271l-0.18-0.048l0.018-0.145l-0.007-0.002
		c-0.082,0.068-0.223,0.115-0.381,0.074c-0.223-0.06-0.296-0.246-0.254-0.406c0.07-0.266,0.345-0.35,0.772-0.234l0.006-0.022
		c0.024-0.09,0.042-0.265-0.185-0.32c-0.104-0.027-0.22-0.022-0.311,0.006l-0.011-0.145c0.107-0.033,0.252-0.037,0.391,0
		c0.34,0.09,0.361,0.342,0.303,0.563L115.451,180.232z M115.334,179.882c-0.218-0.063-0.477-0.088-0.533,0.127
		c-0.035,0.133,0.036,0.215,0.137,0.24c0.146,0.036,0.264-0.029,0.319-0.113c0.013-0.021,0.021-0.041,0.027-0.063L115.334,179.882z"
		/>
	<path d="M115.915,179.775c0.03-0.117,0.052-0.207,0.069-0.301l0.178,0.047l-0.036,0.184l0.005,0.003
		c0.082-0.089,0.236-0.158,0.419-0.109c0.153,0.041,0.366,0.193,0.267,0.572l-0.173,0.657l-0.202-0.053l0.167-0.637
		c0.047-0.178,0.02-0.348-0.169-0.396c-0.131-0.032-0.257,0.033-0.323,0.138c-0.016,0.021-0.03,0.059-0.039,0.09l-0.175,0.666
		l-0.201-0.053L115.915,179.775z"/>
	<path d="M117.562,179.605l-0.069,0.266l0.287,0.074l-0.04,0.154l-0.287-0.076l-0.157,0.596c-0.036,0.138-0.017,0.228,0.095,0.255
		c0.055,0.016,0.087,0.02,0.12,0.02l-0.031,0.154c-0.042,0.002-0.107,0-0.186-0.021c-0.094-0.022-0.16-0.074-0.194-0.141
		c-0.039-0.076-0.036-0.183-0.001-0.313l0.158-0.602l-0.171-0.045l0.041-0.154l0.17,0.047l0.053-0.203L117.562,179.605z"/>
	<path d="M118.155,179.827c-0.076-0.02-0.11-0.094-0.091-0.161c0.019-0.07,0.085-0.115,0.163-0.097
		c0.077,0.021,0.113,0.092,0.094,0.162s-0.084,0.115-0.164,0.096H118.155z M117.716,181.109l0.29-1.104l0.201,0.055l-0.29,1.104
		L117.716,181.109z"/>
	<path d="M118.851,179.945l-0.069,0.265l0.287,0.075l-0.041,0.152l-0.287-0.076l-0.156,0.597c-0.036,0.139-0.018,0.227,0.094,0.254
		c0.055,0.016,0.088,0.02,0.12,0.02l-0.031,0.156c-0.042,0.002-0.107,0-0.186-0.021c-0.093-0.022-0.16-0.073-0.194-0.141
		c-0.039-0.078-0.037-0.182-0.002-0.313l0.158-0.604l-0.171-0.045l0.04-0.152l0.171,0.045l0.054-0.201L118.851,179.945z"/>
	<path d="M119.387,180.368l0.068,0.716c0.009,0.079,0.014,0.174,0.014,0.245l0.005,0.003c0.038-0.064,0.083-0.144,0.131-0.214
		l0.389-0.592l0.211,0.058l-0.507,0.707c-0.243,0.342-0.392,0.512-0.561,0.596c-0.123,0.059-0.227,0.065-0.28,0.063l-0.006-0.182
		c0.054,0,0.128-0.016,0.201-0.053c0.066-0.027,0.153-0.088,0.228-0.181c0.015-0.018,0.025-0.028,0.029-0.043
		c0.003-0.012,0.003-0.026-0.003-0.055l-0.138-1.127L119.387,180.368z"/>
</g>
<g>
	<path d="M124.722,182.197l-0.291,0.449l-0.208-0.057l0.939-1.42l0.243,0.063l0.123,1.701l-0.215-0.059l-0.038-0.535
		L124.722,182.197z M125.275,182.175l-0.037-0.49c-0.006-0.107-0.004-0.207-0.004-0.305l-0.007-0.002
		c-0.045,0.084-0.096,0.176-0.15,0.262l-0.271,0.414L125.275,182.175z"/>
	<path d="M125.959,182.175c0.031-0.117,0.05-0.213,0.07-0.308l0.178,0.048l-0.039,0.184l0.007,0.002
		c0.09-0.09,0.221-0.162,0.408-0.113c0.15,0.041,0.242,0.164,0.256,0.31l0.005,0.002c0.052-0.06,0.11-0.092,0.166-0.113
		c0.08-0.033,0.16-0.041,0.266-0.014c0.15,0.039,0.345,0.192,0.243,0.584l-0.173,0.657l-0.2-0.053l0.167-0.637
		c0.057-0.217,0.01-0.365-0.152-0.406c-0.119-0.031-0.229,0.031-0.292,0.119c-0.017,0.027-0.034,0.063-0.043,0.1l-0.183,0.691
		l-0.199-0.051l0.176-0.674c0.048-0.183,0.002-0.326-0.153-0.367c-0.125-0.033-0.247,0.043-0.306,0.137
		c-0.021,0.027-0.034,0.063-0.043,0.096l-0.177,0.679l-0.199-0.056L125.959,182.175z"/>
	<path d="M128.124,183.644c-0.3-0.08-0.479-0.363-0.385-0.717c0.098-0.375,0.403-0.531,0.712-0.451
		c0.321,0.086,0.478,0.375,0.388,0.717c-0.11,0.416-0.446,0.521-0.713,0.451H128.124z M128.171,183.491
		c0.194,0.052,0.389-0.094,0.456-0.35c0.049-0.188,0.017-0.451-0.224-0.516c-0.238-0.063-0.401,0.131-0.457,0.346
		c-0.065,0.246,0.027,0.467,0.223,0.518L128.171,183.491z"/>
	<path d="M129.964,183.771c-0.03,0.117-0.055,0.221-0.071,0.312l-0.181-0.05l0.037-0.186l-0.005-0.002
		c-0.075,0.078-0.226,0.162-0.425,0.108c-0.176-0.045-0.361-0.198-0.258-0.592l0.172-0.653l0.204,0.055l-0.163,0.617
		c-0.056,0.215-0.027,0.377,0.156,0.426c0.137,0.035,0.256-0.035,0.318-0.117c0.019-0.022,0.036-0.061,0.046-0.102l0.18-0.687
		l0.204,0.055L129.964,183.771z"/>
	<path d="M130.436,183.349c0.031-0.117,0.053-0.211,0.07-0.305l0.181,0.047l-0.036,0.186h0.005c0.083-0.088,0.239-0.158,0.425-0.108
		c0.155,0.043,0.371,0.196,0.271,0.582l-0.176,0.67l-0.204-0.058l0.169-0.645c0.047-0.183,0.021-0.354-0.172-0.402
		c-0.131-0.035-0.261,0.033-0.328,0.139c-0.016,0.021-0.03,0.06-0.039,0.091l-0.177,0.678l-0.204-0.055L130.436,183.349z"/>
	<path d="M132.107,183.177l-0.07,0.268l0.292,0.078l-0.041,0.154l-0.292-0.076l-0.158,0.604c-0.037,0.142-0.018,0.229,0.096,0.259
		c0.056,0.016,0.09,0.02,0.122,0.018l-0.032,0.158c-0.042,0.002-0.109,0.002-0.188-0.021c-0.095-0.022-0.164-0.077-0.197-0.145
		c-0.04-0.076-0.037-0.184-0.001-0.313l0.16-0.61l-0.173-0.047l0.04-0.154l0.174,0.047l0.054-0.207L132.107,183.177z"/>
</g>
<line fill="none" stroke="#000000" stroke-width="0.4" x1="111.215" y1="175.175" x2="104.701" y2="204.568"/>
<line fill="none" stroke="#000000" stroke-width="0.4" x1="123.432" y1="177.634" x2="115.833" y2="208.097"/>
<path fill="#FFFFFF" stroke="#000000" stroke-width="0.3" d="M28.195,144.427l9.811,71.24l76.666-2.666c0,0-4.499-39.076-6-47.334
	c-0.5-2.75-1.375-5.078-2.502-7.07c-1.878-3.324-4.456-5.721-7.165-7.596c-6.444-4.461-11.765-8.138-14.985-10.357
	c-2.137-1.475-3.349-2.309-3.349-2.309L28.195,144.427z"/>
<path fill="none" stroke="#000000" stroke-width="0.3" d="M80.672,138.335c3.22,2.223,11.89,8.205,18.333,12.666
	c2.708,1.875,5.287,4.27,7.165,7.596c-3.793-4.09-11.178-4.607-19.082-3.699C86.339,148.917,85.848,143.925,80.672,138.335z"/>
<g>
	<path fill="#2F2F2F" d="M42.32,154.89l-1.826,0.229l0.149,1.179l2.039-0.256l0.117,0.92l-3.16,0.396l-0.625-4.963l3.056-0.385
		l0.116,0.92l-1.936,0.242l0.13,1.03l1.826-0.229L42.32,154.89z"/>
	<path fill="#2F2F2F" d="M47.185,156.271c-0.187,0.123-0.643,0.299-1.24,0.375c-1.716,0.215-2.735-0.748-2.914-2.168
		c-0.214-1.695,0.876-2.783,2.378-2.973c0.582-0.072,1.039-0.011,1.251,0.065l-0.125,0.914c-0.233-0.067-0.561-0.115-0.965-0.065
		c-0.884,0.112-1.509,0.735-1.369,1.85c0.125,0.994,0.793,1.547,1.787,1.422c0.346-0.045,0.707-0.156,0.922-0.281L47.185,156.271z"
		/>
	<path fill="#2F2F2F" d="M49.833,156.156c-1.465,0.185-2.474-0.815-2.652-2.229c-0.187-1.486,0.63-2.722,2.088-2.902
		c1.524-0.19,2.5,0.844,2.672,2.215c0.206,1.636-0.649,2.736-2.101,2.918L49.833,156.156L49.833,156.156z M49.773,155.259
		c0.758-0.097,1.103-0.865,0.98-1.836c-0.112-0.894-0.629-1.604-1.402-1.506c-0.773,0.096-1.113,0.899-0.996,1.827
		c0.118,0.938,0.659,1.607,1.411,1.515H49.773z"/>
	<path fill="#2F2F2F" d="M52.997,155.677l-0.625-4.963l1.311-0.166l1.26,1.688c0.36,0.486,0.726,1.068,1.024,1.601l0.016-0.002
		c-0.149-0.646-0.255-1.314-0.35-2.064l-0.182-1.443l1.03-0.129l0.625,4.961l-1.178,0.148l-1.302-1.781
		c-0.362-0.5-0.774-1.09-1.082-1.645l-0.03,0.006c0.12,0.656,0.223,1.354,0.325,2.166l0.188,1.492L52.997,155.677z"/>
	<path fill="#2F2F2F" d="M60.194,154.851c-1.465,0.186-2.474-0.816-2.652-2.23c-0.188-1.485,0.63-2.721,2.088-2.903
		c1.524-0.191,2.5,0.846,2.673,2.217c0.205,1.635-0.649,2.736-2.101,2.92L60.194,154.851L60.194,154.851z M60.134,153.954
		c0.758-0.098,1.103-0.864,0.98-1.838c-0.113-0.891-0.629-1.604-1.402-1.506c-0.773,0.099-1.114,0.902-0.997,1.83
		c0.118,0.938,0.659,1.607,1.411,1.514H60.134z"/>
	<path fill="#2F2F2F" d="M67.316,151.941c-0.097-0.592-0.209-1.305-0.3-2.031l-0.015,0.002c-0.082,0.65-0.199,1.386-0.318,1.988
		l-0.36,2.017l-0.875,0.108l-0.772-1.848c-0.236-0.57-0.486-1.248-0.693-1.89l-0.014,0.002c0.062,0.673,0.128,1.441,0.177,2.063
		l0.142,1.898l-1.039,0.129l-0.308-5.002l1.495-0.189l0.695,1.605c0.233,0.543,0.459,1.145,0.643,1.713l0.029-0.004
		c0.06-0.593,0.147-1.263,0.247-1.843l0.315-1.717l1.472-0.186l0.891,4.93l-1.089,0.137L67.316,151.941z"/>
	<path fill="#2F2F2F" d="M70.736,153.441l-0.256-2.031l-1.938-2.733l1.289-0.162l0.651,1.131c0.199,0.342,0.343,0.592,0.501,0.902
		l0.016-0.002c0.071-0.324,0.153-0.625,0.256-1l0.35-1.254l1.259-0.158l-1.27,3.1l0.26,2.068L70.736,153.441z"/>
</g>
<g>
	<path d="M40.96,165.79c0.221,0.106,0.528,0.18,0.847,0.145c0.472-0.049,0.721-0.322,0.683-0.688
		c-0.035-0.327-0.246-0.504-0.747-0.635c-0.605-0.149-0.999-0.42-1.051-0.918c-0.059-0.557,0.359-1.018,1.053-1.092
		c0.361-0.039,0.64,0.02,0.803,0.092l-0.087,0.392c-0.119-0.06-0.368-0.134-0.691-0.101c-0.488,0.053-0.643,0.363-0.617,0.605
		c0.036,0.334,0.271,0.477,0.783,0.614c0.63,0.175,0.962,0.431,1.017,0.953c0.058,0.552-0.293,1.076-1.137,1.164
		c-0.344,0.037-0.732-0.028-0.936-0.137L40.96,165.79z"/>
	<path d="M43.573,163.011c-0.175,0.02-0.306-0.107-0.324-0.271c-0.017-0.164,0.091-0.309,0.271-0.328
		c0.18-0.018,0.311,0.104,0.328,0.269c0.017,0.162-0.084,0.313-0.271,0.334h-0.004V163.011z M43.67,166.072l-0.271-2.563
		l0.467-0.051l0.27,2.563L43.67,166.072z"/>
	<path d="M47.066,165.333c0.063,0.596-0.022,0.963-0.242,1.215c-0.23,0.258-0.583,0.373-0.906,0.407
		c-0.308,0.031-0.655-0.008-0.876-0.122l0.079-0.373c0.182,0.096,0.457,0.161,0.775,0.129c0.477-0.052,0.8-0.338,0.732-0.988
		l-0.03-0.281h-0.01c-0.113,0.254-0.374,0.478-0.771,0.519c-0.636,0.065-1.149-0.427-1.225-1.144
		c-0.091-0.869,0.424-1.416,1.019-1.479c0.445-0.047,0.708,0.155,0.847,0.354h0.011l-0.024-0.385l0.413-0.043
		c0.003,0.182,0.02,0.389,0.053,0.701L47.066,165.333z M46.475,164.202c-0.008-0.075-0.021-0.145-0.049-0.204
		c-0.114-0.269-0.36-0.468-0.705-0.433c-0.445,0.049-0.724,0.457-0.661,1.058c0.053,0.5,0.357,0.896,0.855,0.844
		c0.292-0.031,0.532-0.238,0.596-0.551c0.019-0.078,0.02-0.168,0.011-0.255L46.475,164.202z"/>
	<path d="M47.676,163.757c-0.028-0.271-0.056-0.48-0.094-0.689l0.414-0.045l0.071,0.416l0.01-0.002
		c0.102-0.25,0.374-0.52,0.798-0.563c0.355-0.037,0.929,0.116,1.021,0.995l0.162,1.531l-0.467,0.051l-0.156-1.479
		c-0.043-0.414-0.234-0.748-0.674-0.701c-0.302,0.031-0.518,0.273-0.575,0.543c-0.016,0.063-0.017,0.146-0.009,0.223l0.163,1.548
		l-0.466,0.049L47.676,163.757z"/>
	<path d="M51.842,162.14c-0.175,0.02-0.306-0.105-0.323-0.271c-0.018-0.164,0.09-0.311,0.271-0.329
		c0.18-0.021,0.311,0.104,0.328,0.268c0.017,0.164-0.084,0.313-0.27,0.334h-0.006V162.14z M51.94,165.202l-0.27-2.565l0.466-0.049
		l0.27,2.563L51.94,165.202z"/>
	<path d="M52.983,163.198c-0.028-0.271-0.056-0.479-0.094-0.69l0.413-0.043l0.071,0.414h0.01c0.102-0.252,0.374-0.521,0.798-0.564
		c0.356-0.039,0.929,0.115,1.021,0.996l0.162,1.531l-0.466,0.051l-0.156-1.48c-0.044-0.411-0.234-0.745-0.674-0.698
		c-0.302,0.028-0.518,0.272-0.575,0.543c-0.015,0.061-0.017,0.145-0.009,0.221l0.163,1.549l-0.466,0.049L52.983,163.198z"/>
</g>
<g>
	<path d="M74.651,161.382c0.21,0.104,0.503,0.172,0.806,0.141c0.449-0.047,0.688-0.309,0.65-0.654
		c-0.033-0.313-0.234-0.479-0.711-0.604c-0.576-0.146-0.951-0.398-1-0.873c-0.056-0.531,0.342-0.971,1.003-1.039
		c0.343-0.037,0.609,0.018,0.764,0.088l-0.083,0.371c-0.113-0.057-0.35-0.127-0.658-0.096c-0.464,0.051-0.612,0.346-0.587,0.578
		c0.034,0.315,0.257,0.45,0.746,0.584c0.6,0.166,0.916,0.407,0.968,0.907c0.055,0.523-0.28,1.023-1.082,1.107
		c-0.329,0.035-0.697-0.029-0.892-0.129L74.651,161.382z"/>
	<path d="M77.137,158.738c-0.167,0.019-0.292-0.104-0.308-0.26s0.087-0.295,0.258-0.313c0.171-0.021,0.296,0.096,0.313,0.252
		c0.017,0.155-0.081,0.301-0.258,0.315L77.137,158.738z M77.231,161.65l-0.257-2.44l0.444-0.048l0.257,2.441L77.231,161.65z"/>
	<path d="M80.463,160.947c0.06,0.566-0.021,0.916-0.23,1.158c-0.22,0.242-0.555,0.355-0.863,0.387
		c-0.292,0.031-0.623-0.006-0.833-0.114l0.075-0.355c0.173,0.09,0.435,0.152,0.738,0.121c0.454-0.047,0.762-0.32,0.697-0.939
		l-0.028-0.268h-0.01c-0.107,0.24-0.355,0.451-0.734,0.49c-0.605,0.063-1.094-0.404-1.166-1.086
		c-0.087-0.828,0.404-1.351,0.969-1.408c0.424-0.045,0.673,0.146,0.806,0.338h0.01l-0.023-0.365l0.394-0.041
		c0.003,0.174,0.019,0.369,0.05,0.668L80.463,160.947z M79.9,159.87c-0.007-0.069-0.019-0.137-0.046-0.192
		c-0.108-0.254-0.342-0.443-0.67-0.41c-0.424,0.045-0.689,0.436-0.629,1.006c0.05,0.478,0.34,0.854,0.814,0.801
		c0.277-0.026,0.507-0.225,0.567-0.52c0.018-0.074,0.019-0.16,0.01-0.242L79.9,159.87z"/>
	<path d="M81.045,159.448c-0.027-0.258-0.054-0.459-0.09-0.66l0.394-0.041l0.067,0.396l0.01-0.002
		c0.097-0.24,0.356-0.496,0.76-0.539c0.338-0.035,0.884,0.109,0.972,0.947l0.154,1.459l-0.444,0.047l-0.148-1.408
		c-0.042-0.395-0.223-0.711-0.642-0.666c-0.288,0.029-0.493,0.262-0.548,0.519c-0.014,0.059-0.016,0.141-0.008,0.211l0.155,1.475
		l-0.444,0.045L81.045,159.448z"/>
	<path d="M87.075,159.939c0.027,0.254,0.056,0.478,0.091,0.664l-0.394,0.043l-0.067-0.396l-0.01,0.002
		c-0.091,0.207-0.326,0.491-0.76,0.536c-0.384,0.041-0.866-0.127-0.956-0.979l-0.15-1.43l0.444-0.047l0.142,1.348
		c0.049,0.465,0.229,0.768,0.627,0.727c0.297-0.03,0.483-0.262,0.542-0.471c0.019-0.063,0.025-0.146,0.017-0.229l-0.158-1.494
		l0.444-0.047L87.075,159.939z"/>
	<path d="M87.71,158.884c-0.033-0.314-0.065-0.564-0.104-0.795l0.399-0.043l0.069,0.416h0.01c0.144-0.32,0.419-0.523,0.813-0.564
		c0.595-0.063,1.092,0.392,1.17,1.131c0.093,0.879-0.401,1.369-0.972,1.433c-0.328,0.032-0.62-0.078-0.792-0.308l-0.01,0.002
		l0.14,1.328l-0.444,0.045L87.71,158.884z M88.222,159.488c0.006,0.063,0.019,0.125,0.04,0.181c0.108,0.301,0.403,0.481,0.716,0.45
		c0.469-0.051,0.702-0.463,0.643-1.021c-0.052-0.49-0.348-0.883-0.817-0.832c-0.303,0.029-0.568,0.271-0.619,0.615
		c-0.003,0.061-0.012,0.129-0.006,0.184L88.222,159.488z"/>
</g>
<line fill="none" stroke="#000000" x1="41.826" y1="174.56" x2="63.788" y2="171.88"/>
<line fill="none" stroke="#000000" x1="41.826" y1="170.273" x2="63.788" y2="167.595"/>
<line fill="none" stroke="#000000" x1="41.826" y1="177.773" x2="63.788" y2="175.095"/>
<line fill="none" stroke="#000000" x1="75.84" y1="170.542" x2="97.801" y2="167.863"/>
<line fill="none" stroke="#000000" x1="75.84" y1="166.257" x2="97.801" y2="163.577"/>
<line fill="none" stroke="#000000" x1="75.84" y1="173.755" x2="97.801" y2="171.077"/>
<path fill="none" stroke="#000000" stroke-width="0.4" d="M46.379,211.251l-2.41-26.781c0,0,53.832-6.965,56.243-7.232
	c1.607,10.445,4.018,32.676,4.018,32.676L46.379,211.251z"/>
<line fill="none" stroke="#000000" stroke-width="0.4" x1="45.04" y1="198.128" x2="101.551" y2="190.896"/>
<line fill="none" stroke="#000000" stroke-width="0.4" x1="45.576" y1="205.894" x2="103.158" y2="200.003"/>
<path fill="#CCCCCC" stroke="#000000" stroke-width="0.4" d="M101.11,183.439c-7.231,0.803-56.578,7.406-56.578,7.406l-0.563-6.377
	l56.243-7.23L101.11,183.439z"/>
<g>
	<path d="M46.861,186.839c0.143-0.043,0.31-0.082,0.496-0.107c0.336-0.049,0.586-0.008,0.766,0.119
		c0.185,0.123,0.309,0.32,0.351,0.615c0.042,0.297-0.018,0.551-0.161,0.742c-0.148,0.19-0.415,0.323-0.768,0.375
		c-0.169,0.022-0.307,0.036-0.431,0.038L46.861,186.839z M47.326,188.411c0.061,0.002,0.147-0.012,0.238-0.021
		c0.501-0.068,0.732-0.393,0.663-0.881c-0.059-0.437-0.339-0.664-0.833-0.596c-0.122,0.02-0.211,0.04-0.271,0.063L47.326,188.411z"
		/>
	<path d="M48.966,187.74c0.051,0.32,0.271,0.427,0.508,0.392c0.169-0.023,0.27-0.066,0.352-0.115l0.067,0.162
		c-0.079,0.049-0.217,0.115-0.424,0.145c-0.398,0.06-0.679-0.176-0.734-0.563c-0.056-0.396,0.134-0.736,0.513-0.791
		c0.426-0.063,0.589,0.299,0.623,0.537c0.007,0.047,0.009,0.086,0.008,0.112L48.966,187.74z M49.633,187.474
		c-0.019-0.146-0.116-0.377-0.38-0.338c-0.242,0.033-0.313,0.27-0.309,0.436L49.633,187.474z"/>
	<path d="M50.199,187.945c0.08,0.033,0.21,0.063,0.329,0.047c0.169-0.022,0.238-0.116,0.222-0.229
		c-0.016-0.113-0.092-0.166-0.273-0.207c-0.249-0.053-0.377-0.162-0.399-0.318c-0.03-0.211,0.118-0.405,0.395-0.444
		c0.132-0.021,0.252,0,0.329,0.034l-0.033,0.179c-0.055-0.021-0.156-0.058-0.277-0.037c-0.14,0.02-0.204,0.11-0.19,0.209
		c0.016,0.108,0.098,0.146,0.276,0.188c0.235,0.054,0.37,0.148,0.397,0.347c0.033,0.229-0.125,0.418-0.428,0.461
		c-0.143,0.021-0.28,0.002-0.379-0.039L50.199,187.945z"/>
	<path d="M52.253,187.851c-0.058,0.039-0.188,0.104-0.363,0.129c-0.393,0.057-0.687-0.174-0.744-0.576
		c-0.057-0.397,0.176-0.729,0.601-0.793c0.14-0.02,0.269-0.002,0.338,0.023l-0.028,0.188c-0.061-0.02-0.154-0.041-0.283-0.021
		c-0.298,0.043-0.428,0.289-0.39,0.561c0.043,0.304,0.263,0.461,0.521,0.424c0.135-0.02,0.219-0.063,0.282-0.104L52.253,187.851z"/>
	<path d="M52.412,186.96c-0.021-0.15-0.043-0.283-0.068-0.402l0.207-0.029l0.047,0.254l0.008-0.002
		c0.034-0.182,0.164-0.313,0.323-0.336c0.024-0.004,0.043-0.004,0.066-0.002l0.031,0.224c-0.028,0-0.052,0.002-0.084,0.006
		c-0.167,0.022-0.268,0.166-0.274,0.348c0,0.035,0.002,0.072,0.008,0.113l0.099,0.692l-0.237,0.033L52.412,186.96z"/>
	<path d="M53.321,186.173c-0.089,0.014-0.158-0.049-0.17-0.133c-0.012-0.082,0.041-0.158,0.132-0.173
		c0.091-0.014,0.161,0.048,0.172,0.129c0.011,0.084-0.038,0.162-0.131,0.177H53.321z M53.427,187.73l-0.185-1.303l0.237-0.033
		l0.185,1.303L53.427,187.73z"/>
	<path d="M53.932,186.765c-0.024-0.168-0.045-0.303-0.071-0.426l0.213-0.029l0.044,0.223l0.006-0.002
		c0.071-0.174,0.214-0.285,0.424-0.315c0.318-0.045,0.592,0.188,0.648,0.584c0.066,0.469-0.188,0.74-0.493,0.783
		c-0.174,0.022-0.333-0.029-0.43-0.146h-0.005l0.101,0.709l-0.237,0.031L53.932,186.765z M54.218,187.077
		c0.004,0.031,0.012,0.066,0.024,0.097c0.064,0.158,0.225,0.252,0.392,0.229c0.25-0.035,0.366-0.262,0.324-0.561
		c-0.037-0.263-0.203-0.465-0.453-0.431c-0.161,0.021-0.299,0.156-0.319,0.343c0,0.032-0.004,0.067,0,0.1L54.218,187.077z"/>
	<path d="M55.644,185.769l0.044,0.314l0.339-0.052l0.025,0.185l-0.339,0.049l0.1,0.701c0.023,0.16,0.082,0.244,0.214,0.227
		c0.064-0.008,0.102-0.02,0.135-0.035l0.037,0.181c-0.044,0.022-0.114,0.051-0.206,0.063c-0.11,0.019-0.204-0.008-0.27-0.063
		c-0.075-0.063-0.118-0.175-0.14-0.328l-0.101-0.711l-0.202,0.028l-0.026-0.182l0.202-0.029l-0.034-0.235L55.644,185.769z"/>
	<path d="M56.372,185.74c-0.089,0.015-0.158-0.049-0.169-0.133c-0.011-0.082,0.041-0.16,0.132-0.172
		c0.091-0.014,0.16,0.045,0.172,0.129c0.012,0.084-0.038,0.162-0.131,0.176H56.372z M56.478,187.298l-0.185-1.304l0.237-0.032
		l0.185,1.303L56.478,187.298z"/>
	<path d="M57.642,187.162c-0.35,0.05-0.662-0.172-0.72-0.582c-0.062-0.436,0.19-0.729,0.547-0.782
		c0.375-0.054,0.666,0.184,0.722,0.578c0.068,0.483-0.238,0.741-0.547,0.786H57.642z M57.625,186.984
		c0.226-0.031,0.365-0.27,0.323-0.563c-0.031-0.222-0.181-0.48-0.461-0.441c-0.277,0.039-0.361,0.314-0.326,0.563
		c0.041,0.284,0.233,0.479,0.461,0.444L57.625,186.984L57.625,186.984z"/>
	<path d="M58.449,186.05c-0.019-0.14-0.037-0.244-0.061-0.354l0.21-0.026l0.043,0.209h0.005c0.048-0.132,0.181-0.271,0.396-0.304
		c0.18-0.024,0.476,0.041,0.539,0.488l0.11,0.775l-0.237,0.032l-0.106-0.75c-0.03-0.209-0.133-0.377-0.356-0.346
		c-0.153,0.021-0.259,0.15-0.283,0.287c-0.006,0.031-0.006,0.074,0,0.113l0.112,0.785l-0.237,0.032L58.449,186.05z"/>
</g>
<g>
	<path d="M74.912,185.017c-0.219-0.037-0.434-0.08-0.623-0.127c-0.037-0.01-0.068-0.019-0.098-0.016
		c-0.38,0.021-0.725-0.228-0.772-0.734s0.23-0.863,0.657-0.902c0.432-0.041,0.743,0.269,0.787,0.734
		c0.038,0.406-0.126,0.682-0.381,0.801l0.001,0.01c0.162,0.025,0.336,0.047,0.473,0.06L74.912,185.017z M74.2,184.705
		c0.324-0.028,0.479-0.348,0.446-0.704c-0.029-0.316-0.224-0.627-0.56-0.599c-0.345,0.033-0.484,0.367-0.453,0.711
		c0.031,0.334,0.243,0.621,0.564,0.592H74.2z"/>
	<path d="M76.12,184.357c0.011,0.117,0.023,0.221,0.038,0.31l-0.183,0.02l-0.03-0.186h-0.004c-0.043,0.098-0.154,0.229-0.356,0.245
		c-0.178,0.019-0.402-0.063-0.439-0.463l-0.062-0.662l0.207-0.021l0.059,0.627c0.02,0.217,0.102,0.357,0.288,0.34
		c0.139-0.012,0.226-0.117,0.254-0.215c0.009-0.029,0.013-0.066,0.009-0.105l-0.065-0.694l0.207-0.021L76.12,184.357z"/>
	<path d="M77.267,184.287c0.009,0.101,0.023,0.193,0.042,0.271l-0.186,0.02l-0.033-0.143h-0.007
		c-0.053,0.096-0.17,0.188-0.332,0.203c-0.23,0.02-0.363-0.131-0.378-0.297c-0.026-0.273,0.204-0.445,0.644-0.484l-0.002-0.022
		c-0.009-0.095-0.05-0.265-0.283-0.238c-0.108,0.01-0.215,0.053-0.29,0.111l-0.06-0.136c0.089-0.065,0.224-0.119,0.367-0.133
		c0.35-0.033,0.457,0.195,0.478,0.424L77.267,184.287z M77.037,183.999c-0.226,0.018-0.479,0.079-0.458,0.301
		c0.013,0.137,0.108,0.188,0.211,0.18c0.15-0.014,0.238-0.117,0.262-0.215c0.005-0.023,0.006-0.047,0.004-0.068L77.037,183.999z"/>
	<path d="M77.547,183.698c-0.011-0.116-0.022-0.213-0.039-0.307l0.184-0.018l0.029,0.186h0.005c0.046-0.111,0.168-0.229,0.356-0.246
		c0.158-0.016,0.411,0.057,0.447,0.445l0.063,0.68l-0.207,0.021l-0.061-0.654c-0.017-0.185-0.1-0.332-0.294-0.314
		c-0.134,0.015-0.23,0.119-0.257,0.238c-0.007,0.025-0.008,0.064-0.005,0.1l0.064,0.687l-0.207,0.02L77.547,183.698z"/>
	<path d="M79.036,182.976l0.025,0.271l0.296-0.024l0.015,0.156l-0.295,0.026l0.057,0.611c0.013,0.143,0.061,0.217,0.176,0.207
		c0.056-0.006,0.088-0.014,0.119-0.023l0.024,0.154c-0.039,0.021-0.101,0.039-0.181,0.047c-0.097,0.01-0.177-0.018-0.231-0.065
		c-0.062-0.06-0.095-0.156-0.107-0.291l-0.058-0.619l-0.176,0.018l-0.015-0.158l0.176-0.016l-0.02-0.209L79.036,182.976z"/>
	<path d="M79.669,182.98c-0.078,0.008-0.135-0.049-0.142-0.121c-0.007-0.072,0.042-0.137,0.121-0.145
		c0.08-0.009,0.137,0.047,0.144,0.119S79.752,182.972,79.669,182.98L79.669,182.98L79.669,182.98z M79.695,184.337l-0.106-1.14
		l0.207-0.02l0.106,1.137L79.695,184.337z"/>
	<path d="M80.362,182.853l0.025,0.271l0.295-0.027l0.015,0.158l-0.295,0.024l0.057,0.613c0.013,0.143,0.06,0.217,0.175,0.205
		c0.056-0.004,0.089-0.014,0.119-0.023l0.024,0.156c-0.039,0.019-0.101,0.037-0.181,0.045c-0.096,0.01-0.177-0.016-0.231-0.063
		c-0.063-0.062-0.096-0.156-0.108-0.291l-0.058-0.619l-0.176,0.016l-0.015-0.156l0.176-0.018l-0.019-0.209L80.362,182.853z"/>
	<path d="M81.012,183.066l0.309,0.648c0.035,0.071,0.072,0.157,0.097,0.227h0.005c0.015-0.07,0.03-0.16,0.05-0.244l0.164-0.688
		l0.218-0.021l-0.234,0.84c-0.112,0.402-0.194,0.611-0.323,0.75c-0.096,0.099-0.191,0.142-0.242,0.154l-0.068-0.17
		c0.05-0.02,0.115-0.059,0.171-0.117c0.052-0.051,0.113-0.137,0.152-0.246c0.008-0.021,0.013-0.037,0.012-0.051
		c-0.001-0.012-0.007-0.027-0.021-0.051l-0.516-1.012L81.012,183.066z"/>
</g>
<g>
	<path d="M86.651,182.958l-0.12,0.521l-0.214,0.021l0.396-1.656l0.25-0.023l0.698,1.558l-0.222,0.02l-0.219-0.49L86.651,182.958z
		 M87.162,182.746l-0.203-0.446c-0.043-0.104-0.076-0.193-0.108-0.285l-0.007,0.002c-0.013,0.094-0.03,0.195-0.051,0.297
		l-0.114,0.48L87.162,182.746z"/>
	<path d="M87.804,182.513c-0.011-0.121-0.025-0.217-0.039-0.314l0.184-0.016l0.026,0.186l0.007-0.002
		c0.054-0.114,0.152-0.229,0.345-0.243c0.155-0.017,0.283,0.067,0.346,0.198h0.004c0.03-0.069,0.073-0.123,0.117-0.164
		c0.064-0.059,0.135-0.094,0.245-0.104c0.155-0.017,0.391,0.063,0.428,0.465l0.063,0.68l-0.205,0.021l-0.061-0.652
		c-0.021-0.225-0.116-0.348-0.283-0.332c-0.122,0.015-0.205,0.107-0.233,0.213c-0.007,0.031-0.01,0.07-0.007,0.105l0.066,0.715
		l-0.205,0.02l-0.064-0.688c-0.017-0.188-0.11-0.312-0.27-0.295c-0.129,0.012-0.217,0.125-0.24,0.233
		c-0.009,0.031-0.011,0.066-0.007,0.104l0.065,0.695l-0.205,0.02L87.804,182.513z"/>
	<path d="M90.341,183.15c-0.31,0.029-0.574-0.176-0.608-0.541c-0.036-0.387,0.198-0.637,0.515-0.666
		c0.331-0.029,0.578,0.188,0.61,0.539c0.04,0.43-0.241,0.644-0.515,0.668H90.341z M90.334,182.993c0.2-0.02,0.333-0.223,0.309-0.481
		c-0.019-0.195-0.139-0.433-0.387-0.408c-0.246,0.021-0.332,0.262-0.312,0.479c0.023,0.254,0.185,0.432,0.387,0.411L90.334,182.993
		L90.334,182.993z"/>
	<path d="M92.114,182.642c0.011,0.119,0.023,0.225,0.039,0.313l-0.187,0.021l-0.029-0.188h-0.005
		c-0.044,0.101-0.157,0.23-0.361,0.25c-0.181,0.019-0.408-0.063-0.445-0.469l-0.063-0.674l0.21-0.021l0.059,0.637
		c0.021,0.221,0.104,0.363,0.292,0.346c0.141-0.014,0.229-0.119,0.258-0.219c0.009-0.029,0.013-0.068,0.009-0.109l-0.065-0.705
		l0.209-0.02L92.114,182.642z"/>
	<path d="M92.413,182.083c-0.011-0.121-0.022-0.218-0.039-0.313l0.186-0.018l0.029,0.188l0.005-0.002
		c0.047-0.111,0.17-0.229,0.361-0.248c0.16-0.016,0.416,0.06,0.453,0.453l0.064,0.688l-0.209,0.021l-0.062-0.666
		c-0.017-0.186-0.101-0.336-0.299-0.316c-0.136,0.013-0.234,0.119-0.261,0.24c-0.007,0.027-0.008,0.064-0.005,0.101l0.065,0.694
		l-0.209,0.021L92.413,182.083z"/>
	<path d="M93.923,181.349l0.026,0.275l0.3-0.027l0.015,0.158l-0.301,0.026l0.058,0.623c0.013,0.144,0.062,0.222,0.178,0.209
		c0.058-0.006,0.09-0.014,0.12-0.024l0.025,0.16c-0.04,0.018-0.103,0.036-0.184,0.045c-0.098,0.01-0.18-0.019-0.234-0.066
		c-0.063-0.061-0.097-0.158-0.109-0.295l-0.059-0.629l-0.179,0.016l-0.015-0.158l0.179-0.018l-0.02-0.211L93.923,181.349z"/>
</g>
<line fill="none" stroke="#000000" stroke-width="0.4" x1="71.554" y1="180.986" x2="75.505" y2="210.835"/>
<line fill="none" stroke="#000000" stroke-width="0.4" x1="83.874" y1="179.111" x2="87.172" y2="210.335"/>
<path fill="#2A2A2A" d="M178.61,207.001v21.243c0,7.271-5.896,13.168-13.167,13.168H14.85c-7.271,0-13.166-5.896-13.166-13.168
	v-21.243H178.61z"/>
<g>
	<path fill="#FFFFFF" d="M12.735,234.169v-20.154H21.3c2.153,0,3.719,0.18,4.695,0.543c0.976,0.359,1.757,1.004,2.344,1.93
		c0.586,0.926,0.88,1.982,0.88,3.176c0,1.511-0.444,2.759-1.332,3.742c-0.888,0.984-2.214,1.605-3.981,1.861
		c0.879,0.514,1.604,1.078,2.177,1.691c0.572,0.614,1.343,1.706,2.313,3.274l2.463,3.937h-4.868l-2.936-4.396
		c-1.048-1.563-1.765-2.555-2.151-2.963c-0.386-0.406-0.795-0.688-1.227-0.838c-0.432-0.152-1.116-0.229-2.054-0.229h-0.827v8.423
		L12.735,234.169L12.735,234.169z M16.798,222.529h3.016c1.955,0,3.176-0.082,3.663-0.248c0.487-0.164,0.868-0.446,1.143-0.852
		c0.275-0.402,0.413-0.906,0.413-1.512c0-0.679-0.182-1.226-0.544-1.644c-0.363-0.416-0.875-0.68-1.535-0.789
		c-0.331-0.047-1.322-0.067-2.975-0.067h-3.181V222.529L16.798,222.529z"/>
	<path fill="#FFFFFF" d="M33.067,234.169v-20.154h14.922v3.404H37.13v4.471h10.109v3.404H37.13v5.471h11.25v3.404H33.067z"/>
	<path fill="#FFFFFF" d="M64.72,226.732l3.953,1.25c-0.605,2.209-1.612,3.853-3.019,4.922c-1.407,1.072-3.193,1.609-5.356,1.609
		c-2.677,0-4.878-0.914-6.602-2.744c-1.724-1.828-2.585-4.328-2.585-7.5c0-3.354,0.866-5.959,2.598-7.814
		c1.732-1.854,4.01-2.784,6.832-2.784c2.466,0,4.468,0.729,6.008,2.186c0.917,0.859,1.604,2.096,2.062,3.707l-4.031,0.969
		c-0.238-1.043-0.736-1.864-1.492-2.471c-0.757-0.604-1.676-0.904-2.757-0.904c-1.494,0-2.707,0.535-3.637,1.607
		c-0.93,1.07-1.396,2.807-1.396,5.205c0,2.547,0.458,4.356,1.375,5.438c0.917,1.08,2.109,1.621,3.576,1.621
		c1.082,0,2.013-0.346,2.792-1.037C63.82,229.302,64.381,228.216,64.72,226.732z"/>
	<path fill="#FFFFFF" d="M72.177,234.169v-20.154h4.063v7.938h7.984v-7.938h4.063v20.154h-4.063v-8.813H76.24v8.813H72.177z"/>
	<path fill="#FFFFFF" d="M92.54,234.169v-20.154h3.945l8.274,13.504v-13.504h3.766v20.154h-4.069l-8.149-13.211v13.211H92.54z"/>
	<path fill="#FFFFFF" d="M112.794,214.013h4.063v10.914c0,1.729,0.05,2.854,0.152,3.365c0.174,0.825,0.59,1.485,1.247,1.985
		c0.657,0.5,1.555,0.748,2.695,0.748c1.158,0,2.031-0.233,2.619-0.707c0.588-0.473,0.942-1.051,1.062-1.738
		c0.119-0.688,0.179-1.827,0.179-3.424v-11.145h4.063V224.6c0,2.42-0.11,4.129-0.33,5.129c-0.22,0.998-0.626,1.842-1.217,2.527
		c-0.591,0.688-1.382,1.235-2.373,1.645c-0.99,0.408-2.283,0.611-3.878,0.611c-1.926,0-3.386-0.224-4.381-0.666
		c-0.995-0.445-1.781-1.021-2.358-1.732c-0.578-0.711-0.958-1.455-1.142-2.233c-0.266-1.152-0.399-2.857-0.399-5.113v-10.752h-0.002
		V214.013z"/>
	<path fill="#FFFFFF" d="M133.204,234.169v-20.154h3.945l8.274,13.504v-13.504h3.766v20.154h-4.069l-8.15-13.211v13.211H133.204z"/>
	<path fill="#FFFFFF" d="M162.863,226.763v-3.406h8.781v8.031c-0.853,0.824-2.089,1.553-3.707,2.182
		c-1.619,0.631-3.258,0.943-4.918,0.943c-2.109,0-3.948-0.441-5.516-1.326s-2.747-2.148-3.536-3.795
		c-0.788-1.646-1.183-3.437-1.183-5.369c0-2.1,0.44-3.965,1.32-5.596c0.88-1.633,2.168-2.885,3.864-3.754
		c1.293-0.67,2.902-1.004,4.827-1.004c2.503,0,4.458,0.524,5.866,1.575c1.407,1.054,2.313,2.507,2.716,4.359l-4.047,0.75
		c-0.284-0.988-0.818-1.77-1.603-2.344c-0.785-0.572-1.764-0.859-2.938-0.859c-1.779,0-3.194,0.564-4.244,1.689
		c-1.05,1.127-1.575,2.799-1.575,5.016c0,2.392,0.532,4.185,1.598,5.377c1.064,1.195,2.46,1.793,4.187,1.793
		c0.854,0,1.71-0.166,2.568-0.5c0.858-0.334,1.595-0.738,2.21-1.215v-2.551L162.863,226.763L162.863,226.763z"/>
</g>
</svg>
