<svg xmlns="http://www.w3.org/2000/svg" width="38" height="39" viewBox="0 0 38 39"><path fill="#fff" d="M25.08 36.94c-4.45-1.7-9.28-5.05-13.61-9.43-4.34-4.39-7.65-9.28-9.33-13.78C.62 9.65.62 6.29 2.13 4.76c.23-.22.45-.46.68-.7C4.19 2.58 5.79.91 7.83 1c1.43.06 2.82.96 4.24 2.75 4.18 5.27 2.3 7.14.11 9.32l-.39.39c-.35.37-1.03 2.04 5.26 8.4 2.05 2.08 3.8 3.6 5.2 4.52.88.58 2.45 1.45 3.1.8l.39-.4c2.15-2.21 4.01-4.11 9.22.13 1.76 1.43 2.65 2.83 2.71 4.28.08 2.1-1.57 3.69-3.03 5.09l-.69.67c-.76.77-1.96 1.15-3.48 1.15a15.6 15.6 0 0 1-5.39-1.16zM3.7 4.92l-.69.72c-1.13 1.14-1.02 4.15.29 7.65 1.61 4.34 4.82 9.08 9.04 13.34 4.22 4.26 8.89 7.51 13.17 9.14 3.47 1.33 6.44 1.44 7.57.3l.71-.7c1.27-1.22 2.7-2.6 2.64-4.13-.04-1.05-.8-2.19-2.25-3.36-4.34-3.53-5.55-2.28-7.56-.22l-.4.4c-.96.98-2.52.76-4.64-.63a36.23 36.23 0 0 1-5.4-4.69c-5.22-5.28-6.89-8.51-5.25-10.16l.39-.39c2.04-2.05 3.27-3.27-.21-7.66-1.17-1.47-2.29-2.24-3.33-2.28h-.1c-1.47 0-2.8 1.41-3.98 2.67zM30.38 16.32a.64.64 0 0 1-.23-.05.62.62 0 0 1-.34-.81 5.3 5.3 0 0 0-1.14-5.68 5.18 5.18 0 0 0-5.8-1.07.62.62 0 0 1-.82-.31.64.64 0 0 1 .31-.83 6.38 6.38 0 0 1 7.18 1.33 6.51 6.51 0 0 1 1.41 7.03.63.63 0 0 1-.57.39z"/><path fill="#fff" d="M36.34 18.58a.67.67 0 0 1-.24-.04.61.61 0 0 1-.33-.81c1.68-4.2.72-8.99-2.45-12.19a11.07 11.07 0 0 0-12.45-2.3.63.63 0 0 1-.82-.32.63.63 0 0 1 .31-.82 12.3 12.3 0 0 1 13.83 2.56 12.56 12.56 0 0 1 2.72 13.54.62.62 0 0 1-.57.38z"/></svg>