<svg xmlns="http://www.w3.org/2000/svg" width="36" height="44" viewBox="0 0 36 44"><path fill="#fff" d="M30.4 11.6C30.4 5.2 24.66 0 17.6 0 10.54 0 4.8 5.2 4.8 11.6v4.49a5.8 5.8 0 0 0-4.8 5.7v15.63a5.78 5.78 0 0 0 5.78 5.78h23.64a5.78 5.78 0 0 0 5.78-5.78V21.78a5.79 5.79 0 0 0-4.8-5.69zm-24 0c0-5.51 5.03-10 11.2-10 6.18 0 11.2 4.49 11.2 10V16H6.4zm27.2 25.82a4.2 4.2 0 0 1-4.18 4.18H5.78a4.2 4.2 0 0 1-4.18-4.18V21.78a4.2 4.2 0 0 1 4.18-4.18h23.64a4.2 4.2 0 0 1 4.18 4.18z"/><path fill="#fff" d="M14 25.2V30a3.2 3.2 0 0 0 6.4 0v-4.8a3.2 3.2 0 0 0-6.4 0zm4.8 4.8c0 .88-.72 1.6-1.6 1.6a1.6 1.6 0 0 1-1.6-1.6v-4.8c0-.88.72-1.6 1.6-1.6.88 0 1.6.72 1.6 1.6z"/></svg>