<?xml version="1.0" encoding="utf-8"?>
<!-- Generator: Adobe Illustrator 16.0.3, SVG Export Plug-In . SVG Version: 6.00 Build 0)  -->
<!DOCTYPE svg PUBLIC "-//W3C//DTD SVG 1.1//EN" "http://www.w3.org/Graphics/SVG/1.1/DTD/svg11.dtd">
<svg version="1.1" id="Layer_1" xmlns="http://www.w3.org/2000/svg" xmlns:xlink="http://www.w3.org/1999/xlink" x="0px" y="0px"
	 width="283.217px" height="87.859px" viewBox="0 0 283.217 87.859" enable-background="new 0 0 283.217 87.859"
	 xml:space="preserve">
<g>
	<g>
		<path fill="#E4E4E4" d="M12.448,61.836L7.011,76.43c-0.355,0.904-0.656,1.922-0.859,3.018c-0.386,2.072,0.548,3.658,2.972,3.66
			c2.796,0.004,5.01-1.881,6.781-6.594l5.489-14.668l5.367,0.006l-5.409,14.441c-2.886,7.688-6.928,11.385-13.75,11.377
			c-5.188,0.033-7.843-2.724-6.84-8.117c0.204-1.094,0.584-2.338,1.032-3.543L7.08,61.83L12.448,61.836z M14.171,60.405
			c-1.269-0.004-2.21-0.944-1.944-2.379c0.295-1.586,1.736-2.715,3.226-2.715c1.417,0.002,2.152,1.062,1.906,2.379
			c-0.302,1.621-1.734,2.717-3.15,2.715H14.171z M21.773,60.412c-1.268-0.002-2.21-0.945-1.944-2.377
			c0.296-1.584,1.736-2.718,3.228-2.718c1.416,0.004,2.151,1.062,1.905,2.381c-0.303,1.619-1.734,2.716-3.151,2.714H21.773z"/>
		<path fill="#E4E4E4" d="M32.902,62.309c1.859-0.375,4.25-0.6,6.71-0.598c2.646,0.004,4.483,0.346,5.979,1.326
			c1.517,0.868,2.437,2.528,2.037,4.68c-0.598,3.207-3.279,5.203-6.187,5.992l-0.021,0.112c2.281,0.759,3.438,2.759,2.919,5.55
			c-0.513,2.752-2.331,4.713-4.553,6.026c-2.397,1.472-5.679,2.068-9.854,2.064c-2.833-0.002-5.071-0.193-6.253-0.459L32.902,62.309
			z M30.369,83.131c0.62,0.074,1.254,0.076,2.036,0.076c2.908,0.004,5.771-1.162,6.298-3.992c0.472-2.527-1.476-3.283-3.973-3.285
			l-1.678-0.002L30.369,83.131z M34.609,71.969l1.789,0.002c2.944,0.002,5.189-1.24,5.596-3.428
			c0.336-1.812-0.969-2.605-3.019-2.605c-0.933,0-1.729,0.074-2.153,0.148L34.609,71.969z"/>
		<path fill="#E4E4E4" d="M65.866,76.49l-8.907-0.012l-2.309,6.187l10.027,0.01l-1.758,4.639l-15.396-0.016l9.502-25.414
			l14.872,0.014l-1.758,4.642l-9.468-0.013l-2.048,5.396l8.982,0.008L65.866,76.49z"/>
		<path fill="#E4E4E4" d="M78.406,62.393c1.754-0.412,4.332-0.637,6.829-0.635c2.386,0.002,4.782,0.346,6.323,1.479
			c1.458,0.98,2.318,2.564,1.876,4.941c-0.702,3.771-3.597,6.107-7.037,7.16l-0.021,0.113c1.364,0.68,1.727,2.34,1.521,4.641
			c-0.198,2.867-0.63,6.188-0.379,7.242l-5.516-0.006c-0.099-0.681,0.048-2.867,0.406-5.996c0.315-3.095-0.552-4.037-2.677-4.039
			l-1.64-0.002L74.36,87.321l-5.293-0.008L78.406,62.393z M79.672,73.223l2.198,0.002c2.907,0.002,5.362-1.768,5.826-4.258
			c0.379-2.035-1.13-2.943-3.292-2.945c-1.007,0-1.654,0.074-2.123,0.188L79.672,73.223z"/>
		<path fill="#E4E4E4" d="M96.689,87.348l3.977-25.422l5.753,0.006l-2.227,11.314c-0.607,3.094-1.251,5.959-1.783,8.26h0.08
			c1.437-2.488,2.895-5.09,4.724-8.18l7.009-11.39l6.226,0.006l-2.313,11.354c-0.641,3.057-1.216,5.582-1.864,8.072h0.08
			c1.425-2.642,2.945-5.355,4.55-8.105l6.798-11.311l5.989,0.006l-16.704,25.408l-6.186-0.009l1.89-10.407
			c0.555-3.021,1.138-5.58,1.86-8.447h-0.079c-1.48,2.715-2.967,5.467-4.877,8.559l-6.597,10.291L96.689,87.348z"/>
		<path fill="#E4E4E4" d="M147.271,76.573l-8.909-0.012l-2.309,6.187l10.028,0.01l-1.758,4.639l-15.396-0.016l9.502-25.416
			l14.875,0.016l-1.761,4.642l-9.469-0.013l-2.047,5.396l8.986,0.008L147.271,76.573z"/>
		<path fill="#E4E4E4" d="M164.449,61.992l-9.503,25.416L149.58,87.4l9.504-25.416L164.449,61.992z"/>
		<path fill="#E4E4E4" d="M164.353,81.533c1.322,0.903,3.275,1.625,5.625,1.627c2.049,0.002,4.133-0.979,4.498-2.939
			c0.273-1.471-0.639-2.377-2.719-3.623c-2.379-1.438-4.535-3.477-3.924-6.758c0.953-5.129,5.936-8.254,11.416-8.248
			c3.018,0.002,4.68,0.684,5.654,1.25l-2.521,4.522c-0.735-0.452-2.36-1.135-4.457-1.1c-2.497-0.004-4.032,1.24-4.293,2.635
			c-0.278,1.513,1.078,2.416,2.979,3.625c2.756,1.625,4.271,3.701,3.701,6.759c-1.056,5.655-6.217,8.557-11.771,8.551
			c-3.459-0.041-5.826-0.949-6.817-1.816L164.353,81.533z"/>
		<path fill="#E4E4E4" d="M197.397,62.026L191.96,76.62c-0.354,0.903-0.656,1.924-0.857,3.018c-0.389,2.074,0.586,3.66,2.972,3.662
			c2.834,0.002,5.012-1.881,6.78-6.596l5.49-14.668l5.367,0.006l-5.41,14.44c-2.887,7.691-6.893,11.386-13.75,11.377
			c-5.188,0.031-7.844-2.725-6.84-8.114c0.205-1.097,0.584-2.339,1.031-3.545l5.287-14.181L197.397,62.026z"/>
		<path fill="#E4E4E4" d="M210.037,87.465l9.502-25.416l6.301,0.008l1.515,9.695c0.401,3.244,0.582,5.885,0.658,8.676l0.11,0.002
			c0.596-2.604,1.487-5.393,2.854-9.127l3.436-9.238l5.031,0.008l-9.502,25.412l-5.555-0.006l-1.615-10.146
			c-0.474-3.474-0.715-5.773-0.812-8.865h-0.11c-0.728,2.488-1.988,6.07-3.484,10.104l-3.334,8.896L210.037,87.465z"/>
		<path fill="#E4E4E4" d="M258.039,86.344c-2.021,0.639-5.226,1.428-8.394,1.426c-3.43-0.004-6.131-0.912-7.832-2.801
			c-1.682-1.771-2.311-4.604-1.707-7.848c0.886-4.752,3.552-8.859,7.271-11.609c3.272-2.375,7.437-3.688,11.795-3.686
			c3.242,0.004,5.55,0.645,6.427,1.139l-2.459,4.6c-1.021-0.526-2.896-1.061-5.136-1.063c-2.496-0.002-4.83,0.713-6.754,2.031
			c-2.521,1.729-4.535,4.747-5.185,8.217c-0.793,4.262,1.306,6.414,5.256,6.418c1.269,0.002,2.158-0.188,2.845-0.449l2.002-5.354
			l-3.914-0.006l1.666-4.338l9.133,0.013L258.039,86.344z"/>
	</g>
	<g>
		<path fill="#E4E4E4" d="M49.107,19.987c-4.196-1.418-7.825-1.813-6.805-4.31c1.02-2.497,2.097-3.629,4.989-3.629
			s14.347,0,18.713,0c3.119-4.593,8.278-9.413,11.228-11.341c0,0-19.846,0-32.379,0S26.256,13.863,26.256,20.553
			c0,6.691,7.031,8.676,10.832,9.583c3.8,0.908,4.195,1.984,4.195,3.969c0,1.985-2.042,3.349-6.635,3.349
			c-4.593,0-29.941,0-29.941,0L0,50.297c0,0,22.061-0.086,30.057-0.086s13.722-0.908,19.053-4.99
			c5.331-4.084,7.087-9.471,7.881-15.709C57.784,23.274,53.303,21.406,49.107,19.987z"/>
		<path fill="#E4E4E4" d="M93.403,0c-24.5,0-32.5,29.375-32.5,37.125s4.25,13.625,15.5,13.625c12.629,0,20.375-5.5,28.75-24.5
			S103.403,0,93.403,0z M90.903,27.751c-3.25,7.125-6.25,12.438-10.563,12.438s-5.938-2.25-5.938-5.125s2.188-10.563,5.813-16.625
			c3.625-6.062,6.525-8.148,9.756-7.852c3.119,0.289,4.556,1.789,4.431,4.102C94.301,16.586,94.153,20.625,90.903,27.751z"/>
		<path fill="#E4E4E4" d="M176.069,0c-24.5,0-32.5,29.375-32.5,37.125s4.25,13.625,15.5,13.625c12.63,0,20.375-5.5,28.75-24.5
			S186.069,0,176.069,0z M173.569,27.751c-3.25,7.125-6.25,12.438-10.563,12.438c-4.314,0-5.939-2.25-5.939-5.125
			s2.189-10.563,5.814-16.625c3.625-6.062,6.525-8.148,9.756-7.852c3.119,0.289,4.557,1.789,4.432,4.102
			C176.969,16.586,176.819,20.625,173.569,27.751z"/>
		<path fill="#E4E4E4" d="M128.557,14.797c0.831-1.959,2.019-2.553,2.672-2.553s11.577,0,16.502,0
			c3.146-4.811,7.601-8.786,12.586-11.576c0,0-18.938,0-28.911,0c-9.974,0-14.188,5.639-17.216,13.892s-13.06,35.563-13.06,35.563
			h14.723l7.006-19.414c0,0,9.794,0,13.712,0c1.307-5.344,3.443-10.152,3.443-10.152h-13.297
			C126.717,20.556,127.726,16.756,128.557,14.797z"/>
		<path fill="#E4E4E4" d="M234.078,10.159c0-8.778-8.343-9.4-15.004-9.4c-6.662,0-17.06,0-17.06,0l-17.869,49.308h15.068
			c0,0,4.232-11.703,5.104-14.255c0.871-2.551,1.494-2.801,2.183-2.738c0,0,2.61,10.462,3.981,17.186h15.502
			c-0.541-3.664-3.707-14.339-6.957-21.255C228.778,24.417,234.078,18.938,234.078,10.159z M216.778,21.125
			c-1.918,1.959-4.5,1.793-9.375,1.584l4.416-11.959c1.584,0,3.041,0,4.166,0s4.173,0.169,4.173,3.043
			C220.158,16.25,218.694,19.167,216.778,21.125z"/>
		<path fill="#E4E4E4" d="M233.653,0.25c3,2.875,5,6.188,4.813,12c3.063,0,9.063,0,9.063,0l-14.125,38.063h13.5l14.25-38.125
			l17.5,0.021l4.563-11.957L233.653,0.25L233.653,0.25z"/>
	</g>
</g>
</svg>
