<svg xmlns="http://www.w3.org/2000/svg" width="64" height="41" viewBox="0 0 64 41"><path fill="#fff" d="M14 33c-.56 0-1 .44-1 .99a1 1 0 0 1-1 1A1 1 0 1 1 12 33a1 1 0 0 0 1-1 1 1 0 0 0-1-1 3 3 0 1 0 2.99 2.99A.99.99 0 0 0 14 33zM54 33c-.56 0-1 .44-1 .99a1 1 0 0 1-1 1A1 1 0 1 1 52 33a1 1 0 0 0 1-1 1 1 0 0 0-1-1 3 3 0 1 0 2.99 2.99A.99.99 0 0 0 54 33z"/><path fill="#fff" d="M63.64 19.24a4.95 4.95 0 0 0-2.46-2.75l-.1-.04-3.3-1.24-2.01-7.63-.01-.03a4.97 4.97 0 0 0-4.79-3.56h-7.01V2a2 2 0 0 0-2-2H2a2 2 0 0 0-2 2v27.93c0 1.1.9 2 2 2h3.29c-.1.32-.17.65-.22.99H1a1 1 0 0 0-1 1 1 1 0 0 0 1 1h4.07a7 7 0 0 0 13.84 0h2.07a3 3 0 0 0 3 2.99h5.99a3 3 0 0 0 3-2.99h12.06a7 7 0 0 0 13.84 0h4.07a1 1 0 0 0 1-1 1 1 0 0 0-1-1h-4.07a6.46 6.46 0 0 0-.22-.99h3.29a2 2 0 0 0 2-2v-8.98c0-.23-.02-.46-.05-.69.03-.1.05-.2.05-.31 0-.27-.12-.53-.3-.71zm-2.7 5.7h1v1h-1zm-16.98-5.98v-2h12.8l3.57 1.34c.32.17.61.39.85.66zm7.01-12.97c1.33 0 2.48.85 2.87 2.11l1.81 6.87H43.96V5.99zM2 29.93v-4.99h30.97a1 1 0 1 0 0-1.99H2V2h39.96v27.93H17.98a.99.99 0 0 0-.24.03 7 7 0 0 0-11.51 0 .88.88 0 0 0-.24-.03zm4.99 3.99a5 5 0 1 1 10 .02 5 5 0 0 1-10-.02zm11.92-1a6.46 6.46 0 0 0-.22-.99h2.46c-.11.31-.17.65-.17.99zm12.06 2a1 1 0 0 1-1 1h-5.99a1 1 0 0 1-1-1v-2a1 1 0 0 1 1-.99h5.99a1 1 0 0 1 1 .99zm14.28-2.99c-.1.32-.17.65-.22.99H32.97c0-.34-.06-.68-.17-.99zm1.7 1.99a5 5 0 0 1 9.99 0 5 5 0 0 1-9.99 0zm10.99-3.99a.99.99 0 0 0-.24.03 7 7 0 0 0-11.51 0 .85.85 0 0 0-.23-.03h-2v-8.98h17.98v2h-1a2 2 0 0 0-2 1.99v1c0 1.1.9 2 2 2h1v1.99z"/><path fill="#fff" d="M25 33c-.26 0-.52.11-.71.29-.18.19-.29.45-.29.71a1 1 0 0 0 1 1 1 1 0 0 0 1-1c0-.26-.11-.52-.29-.71A1.05 1.05 0 0 0 25 33zM37 25h2a1 1 0 0 0 1-1 1 1 0 0 0-1-1h-2a1 1 0 0 0-1 1 1 1 0 0 0 1 1z"/></svg>