<?xml version="1.0" encoding="utf-8"?>
<!-- Generator: Adobe Illustrator 16.0.3, SVG Export Plug-In . SVG Version: 6.00 Build 0)  -->
<!DOCTYPE svg PUBLIC "-//W3C//DTD SVG 1.1//EN" "http://www.w3.org/Graphics/SVG/1.1/DTD/svg11.dtd">
<svg version="1.1" id="Layer_1" xmlns="http://www.w3.org/2000/svg" xmlns:xlink="http://www.w3.org/1999/xlink" x="0px" y="0px"
	 width="1686.708px" height="584.813px" viewBox="0 0 1686.708 584.813" enable-background="new 0 0 1686.708 584.813"
	 xml:space="preserve">
<path display="none" fill="#F2F3F6" d="M1682.708,1360.767c0,28.121-22.379,54.075-62.016,54.075H61.225
	C33.2,1414.842,4,1392.731,4,1364.331V893.967c0-33.121,27.942-55.917,66.291-55.917h1547.86c31.432,0,64.557,18.75,64.557,55.75
	V1360.767z"/>
<g>
	<g>
		<path fill="#959595" d="M495.081,102.407c3.813,0,6.057-0.773,8.749,4.38c2.691,5.153,58.763,156.906,58.763,156.906h10.991
			c0,0,51.362-142.476,54.727-150.723c3.365-8.244,2.692-10.819,15.7-10.563v-9.79h-40.822c0,0,0,3.605,0,10.048
			c13.01-0.773,15.252,2.062,13.235,7.729c-2.019,5.668-37.233,104.861-37.233,104.861s-32.517-88.224-37.134-101.06
			c-4.617-12.836,1.458-11.164,5.103-11.164c3.644,0,7.042,0,7.042,0V92.708h-64.126l0.074,9.696
			C490.147,102.407,491.268,102.407,495.081,102.407z"/>
		<path fill="#959595" d="M728.117,266.118c57.329,0,74.013-42.667,74.013-89.972c0-47.304-20.993-87.807-75.898-87.807
			c-51.137,0-73.208,41.124-73.208,87.807C653.025,222.832,670.789,266.118,728.117,266.118z M727.579,98.234
			c26.108,0,43.87,23.188,43.87,78.84c0,55.648-18.571,79.146-43.063,79.146c-24.49,0-43.87-19.166-43.87-80.076
			C684.515,131.934,695.011,98.234,727.579,98.234z"/>
		<path fill="#959595" d="M832.035,113.708c0,6.821,0,109.295,0,122.782c0,13.488-4.184,15.503-16.465,15.503v10.387h59.245
			c0,0,0-4.651,0-10.542c-11.2,0-14.574-2.167-14.574-10.696c0-8.528,0-54.261,0-54.261h13.224c0,0,32.119,58.291,42.106,75.034
			h43.185c0,0,0-4.961,0-9.922c-9.985,0.156-11.198-1.085-14.438-4.343c-3.24-3.254-36.98-57.207-41.701-64.646
			c7.691-4.496,28.88-14.575,28.88-48.217c0-33.642-18.485-42.631-41.564-42.631c-23.076,0-74.765,0-74.765,0v9.613
			C830.011,103.011,832.035,106.886,832.035,113.708z M860.106,102.857c0,0,7.962,0,17.544,0c9.581,0,23.616,6.354,23.616,35.191
			c0,28.834-19.974,39.528-31.984,39.528c-6.073,0-9.176,0-9.176,0V102.857z"/>
		<path fill="#959595" d="M1021.569,251.876c0,0-2.691,0.58-7.654-0.966c-4.963-1.546-5.468-6.569-5.468-14.687
			c0-8.115,0-56.331,0-56.331s43.399,59.81,45.17,62.708c1.763,2.899,2.352,4.541,1.932,6.376c-0.419,1.836-1.092,2.609-4.372,2.609
			s-9.842,0-9.842,0v10.821h110.519V251.78c0,0-5.975,0-9.508,0c-3.53,0-4.119-4.832-1.936-11.208
			c1.583-4.604,12.114-30.82,12.114-30.82h62.828c0,0,10.008,25.119,11.773,29.371c1.767,4.252,2.524,6.185,1.935,8.792
			c-0.588,2.61-5.383,4.058-7.735,4.058c-2.355,0-7.403,0-7.403,0v10.435h61.654V251.78c0,0-2.86,0-6.478,0
			s-6.896-2.996-10.596-11.401c-3.701-8.404-59.716-149.47-59.716-149.47h-9.927c0,0-58.536,146.764-61.228,152.658
			c-2.691,5.894-5.471,8.309-8.58,8.309c-3.112,0-7.904,0-13.207,0c-5.3,0-7.57-3.963-12.194-8.502
			c-4.63-4.543-55.513-72.565-61.822-80.388c0,0,51.474-54.396,54.42-57.198c2.944-2.801,4.457-3.478,7.822-3.478
			c3.363,0,6.813,0,6.813,0v-9.855h-44.495v9.182c0,0,4.631,0.827,8.496,1.256c4.859,0.538,4.541,2.899,2.523,5.411
			c-1.036,1.287-15.11,16.724-29.339,31.813c-13.554,14.375-27.249,28.398-29.96,30.988c0,0,0-40.482,0-50.53
			c0-10.048,0.505-11.307,2.188-14.592c1.683-3.286,8.664-3.479,11.524-3.479V92.359h-58.288v9.564c0,0,5.111,1.137,8.495,1.353
			c4.543,0.292,7.401,3.77,7.401,13.913c0,10.146,0,110.338,0,121.449c0,11.115-4.794,13.141-7.823,13.141c-3.024,0-8.07,0-8.07,0
			v10.534h58.032V251.876L1021.569,251.876z M1183.813,133.133l27.588,65.99h-54.165L1183.813,133.133z"/>
		<path fill="#959595" d="M1383.037,215.128c0-30.661-23.941-43.255-40.931-54.751c-16.99-11.499-28.851-18.068-28.851-35.363
			c0-17.294,12.954-26.471,23.803-26.471c10.852,0,23.637,3.285,23.637,30.916h13.625l-0.086-33.62c0,0-15.139-7.922-41.887-7.922
			c-26.741,0-46.591,17.197-46.591,47.726c0,30.531,33.357,49.469,47.601,57.197c14.242,7.73,21.195,18.037,21.195,30.403
			c0,12.368-4.262,32.722-28.706,32.722c-24.446,0-25.679-19.581-25.679-26.667v-4.122h-14.692v34.396c0,0,15.813,6.7,42.95,6.7
			C1361.281,266.271,1383.037,245.788,1383.037,215.128z"/>
		<path fill="#959595" d="M1497.088,215.128c0-30.661-23.942-43.255-40.935-54.751c-16.989-11.499-28.847-18.068-28.847-35.363
			c0-17.294,12.952-26.471,23.802-26.471c10.852,0,23.639,3.285,23.639,30.916h13.625l-0.085-33.62c0,0-15.139-7.922-41.886-7.922
			s-46.597,17.197-46.597,47.726c0,30.531,33.364,49.469,47.606,57.197c14.242,7.73,21.194,18.037,21.194,30.403
			c0,12.368-4.261,32.722-28.708,32.722c-24.449,0-25.683-19.581-25.683-26.667v-4.122h-14.691v34.396c0,0,15.814,6.7,42.953,6.7
			C1475.333,266.271,1497.088,245.788,1497.088,215.128z"/>
		<path fill="#959595" d="M1620.503,231.007h-13.375c0,0-0.42,6.183-1.262,11.401c-0.841,5.216-1.77,7.922-8.24,7.922
			c-6.48,0-25.233,0-34.654,0c-9.42,0-8.664-5.796-8.664-13.626c0-7.826,0-59.42,0-59.42s20.44,0,28.763,0
			c8.328,0,9.506,6.184,9.506,13.913h9.084v-37.005h-9.589c0,0,0.337,4.156-0.337,9.182c-0.673,5.025-3.786,4.735-6.729,4.735
			c-2.944,0-30.529,0-30.529,0v-64.925c0,0,32.97,0,39.025,0c6.057,0,8.412,2.996,8.577,7.151c0.168,4.154,0.504,9.951,0.504,11.784
			h13.712V92.362h-107.742v9.662c10.347,0,16.148,2.126,16.148,12.464c0,10.341,0,113.43,0,124.348
			c0,10.92-5.216,12.853-8.578,12.853c-3.364,0-6.056,0-7.738,0v10.725H1620.5v-31.402h0.003V231.007z"/>
	</g>
	<g>
		<path fill="#575757" d="M892.278,483.221c-2.406-2.106-27.477-37.001-30.984-41.813c5.717-2.908,21.459-9.428,21.459-31.187
			s-13.738-27.575-30.883-27.575c-17.147,0-55.55,0-55.55,0v6.22c11.028,0.802,12.532,3.309,12.532,7.721s0,70.689,0,79.415
			c0,8.724-3.106,10.025-12.231,10.025v6.718h44.019c0,0,0-3.008,0-6.816c-8.32,0-10.829-1.404-10.829-6.919
			c0-5.517,0-35.095,0-35.095h9.827c0,0,23.866,37.7,31.286,48.529h32.086c0,0,0-3.209,0-6.417
			C895.586,486.128,894.684,485.324,892.278,483.221z M836.527,437.897c-4.514,0-6.818,0-6.818,0v-48.331c0,0,5.916,0,13.035,0
			c7.12,0,17.547,4.111,17.547,22.764C860.292,430.979,845.452,437.897,836.527,437.897z"/>
		<path fill="#575757" d="M1243.34,426.771c-12.623-7.437-21.434-11.686-21.434-22.872c0-11.186,9.623-17.123,17.686-17.123
			s17.561,2.125,17.561,19.998h10.125l-0.064-21.748c0,0-11.25-5.124-31.121-5.124c-19.873,0-34.621,11.124-34.621,30.871
			c0,19.748,24.789,31.996,35.371,36.995c10.582,5,15.748,11.666,15.748,19.665s-3.166,21.163-21.332,21.163
			c-18.164,0-19.08-12.665-19.08-17.247v-2.667h-10.916v22.248c0,0,11.75,4.332,31.914,4.332c24.412,0,40.578-13.248,40.578-33.079
			S1255.963,434.208,1243.34,426.771z"/>
		<path fill="#575757" d="M777.156,479.894c-0.625,3.374-1.313,5.124-6.124,5.124c-4.813,0-18.748,0-25.747,0
			c-7,0-6.438-3.749-6.438-8.813c0-5.062,0-38.433,0-38.433s15.188,0,21.373,0c6.188,0,7.063,4,7.063,8.999h6.749v-23.935h-7.124
			c0,0,0.25,2.688-0.25,5.937c-0.5,3.25-2.813,3.063-4.999,3.063c-2.188,0-22.687,0-22.687,0v-41.995c0,0,24.497,0,28.997,0
			s6.249,1.938,6.374,4.625c0.125,2.687,0.375,6.437,0.375,7.624h10.188v-19.248h-80.054v6.249c7.688,0,12,1.375,12,8.062
			c0,6.688,0,73.366,0,80.429s-3.875,8.313-6.375,8.313s-4.5,0-5.75,0v6.938h83.304v-20.311h-9.938
			C778.094,472.52,777.781,476.519,777.156,479.894z"/>
		<path fill="#575757" d="M1124.362,479.894c-0.625,3.374-1.313,5.124-6.123,5.124c-4.813,0-18.748,0-25.748,0
			c-6.998,0-6.438-3.749-6.438-8.813c0-5.062,0-38.433,0-38.433s15.188,0,21.371,0c6.189,0,7.064,4,7.064,8.999h6.748v-23.935
			h-7.123c0,0,0.25,2.688-0.25,5.937c-0.5,3.25-2.814,3.063-5,3.063c-2.189,0-22.686,0-22.686,0v-41.995c0,0,24.496,0,28.996,0
			s6.248,1.938,6.373,4.625c0.125,2.687,0.375,6.437,0.375,7.624h10.188v-19.248h-80.055v6.249c7.688,0,11.998,1.375,11.998,8.062
			c0,6.688,0,73.366,0,80.429s-3.875,8.313-6.373,8.313c-2.5,0-4.5,0-5.75,0v6.938h83.305v-20.311h-9.938
			C1125.299,472.52,1124.987,476.519,1124.362,479.894z"/>
		<rect x="527.831" y="357.68" fill="#575757" width="15.058" height="15.334"/>
		<rect x="557.827" y="357.68" fill="#575757" width="15.058" height="15.334"/>
		<path fill="#575757" d="M566.078,389.276c8.937,0.375,12.124,1.25,12.124,7.374s0,36.745,0,58.118
			c0,21.372-8.624,33.995-28.372,33.995s-23.985-17.229-23.985-33.317s0-46.049,0-55.405c0-9.358,2.626-10.503,12.188-10.503v-6.802
			h-46.59c0,0,0.093,3.757,0.093,6.897c10.284,0.428,12.141,2.57,12.141,10.284c0,7.713,0,22.14,0,48.994
			c0,26.854,9.144,46.277,44.994,46.277c35.854,0,40.218-26.282,40.218-41.566c0-15.281,0-42.102,0-52.286
			c0-10.188,0.125-11.623,11.938-11.623v-6.938h-34.746C566.078,382.777,566.078,385.714,566.078,389.276z"/>
		<path fill="#575757" d="M664.315,435.396c9.499-3.75,25.995-9.624,25.995-29.496c0-19.873-18.638-23.054-29.433-23.054
			s-53.907,0-53.907,0l-0.022,6.847c0,0,1,0,5.749,0s6.416,2.834,6.416,7.833s0,73.657,0,80.74c0,7.082-5.583,7.582-7.666,7.582
			s-4.5,0-4.5,0v6.791c0,0,29.371,0,50.369,0c20.997,0,37.745-5.875,37.745-26.872S678.313,438.646,664.315,435.396z
			 M640.943,389.776c0,0,3.25,0,8.916,0s18.415,4.416,18.415,17.831s-3.667,24.58-19.165,25.33
			c-5.742,0.278-8.249-0.083-8.249-0.083L640.943,389.776z M651.442,485.015c-6.374,0-10.624-2.75-10.624-10.749
			s0.208-34.662,0.208-34.662c12.707-1.5,31.038,5.416,31.038,22.664C672.064,480.015,661.816,485.015,651.442,485.015z"/>
		<path fill="#575757" d="M1019.459,388.839c0,0,2.436,0.438,6.186,0.75c3.75,0.312,3.939,2.938,3,6.187
			c-0.52,1.807-6.701,21.834-12.15,38.901c-4.365,13.667-8.283,25.276-8.283,25.276l-24.371-76.178h-7.75
			c0,0-20.559,63.367-23.496,71.803c0,0-5.539-18.726-10.193-34.955c-2.77-9.652-5.348-18.422-5.93-21.85
			c-1.563-9.187-3.313-8.562,9.438-10.374v-5.562h-42.934v6.499c0,0,3.375,0.375,6,0.375c2.623,0,3.998,2.063,6.123,8.562
			s27.184,95.425,27.184,95.425h7l24.684-76.303l24.938,76.179h6.686c0,0,31.996-99.551,32.746-101.675
			c0.75-2.125,2.75-2.813,6.439-2.813c3.688,0,4,0,4,0v-6.313h-29.311v6.063h-0.004V388.839z"/>
		<path fill="#575757" d="M1177.958,476.164c0-6.896,0-65.231,0-76.125c0-10.896,2.385-10.507,12.055-10.507v-6.77h-46.219v6.896
			c0,0,1.934,0,6.189,0c4.254,0,6.059,3.866,6.059,9.669c0,5.802,0,68.454,0,76.125c0,7.673-3.867,10.509-7.154,10.509
			s-2.898,0-5.027,0v6.703h46.221c0,0,0-2.9,0-6.703C1178.731,485.704,1177.958,483.063,1177.958,476.164z"/>
		<path fill="#575757" d="M1354.659,389.276c8.936,0.375,12.123,1.25,12.123,7.374s0,36.745,0,58.118
			c0,21.372-8.623,33.995-28.371,33.995s-23.986-17.229-23.986-33.317s0-46.049,0-55.405c0-9.358,2.627-10.503,12.189-10.503v-6.802
			h-46.59c0,0,0.092,3.757,0.092,6.897c10.285,0.428,12.141,2.57,12.141,10.284c0,7.713,0,22.14,0,48.994
			c0,26.854,9.145,46.277,44.996,46.277s40.217-26.282,40.217-41.566c0-15.281,0-42.102,0-52.286
			c0-10.188,0.125-11.623,11.939-11.623v-6.938h-34.746C1354.659,382.777,1354.659,385.714,1354.659,389.276z"/>
		<path fill="#575757" d="M1472.776,389.714c0,0,1.813,0,5.5,0s5.625,1.938,5.625,5.187c0,3.25,0,70.991,0,70.991l-60.594-83.203
			h-27.42v6.934c0,0,4.271,0.029,6.521,0.029s5.5,2.188,5.5,6.624c0,4.438,0,72.616,0,80.365s-4.313,9.249-7.813,9.249
			s-4.313,0-4.313,0v6.874h34.184v-6.999c0,0-1,0-4.873,0c-3.875,0-6.875-0.875-6.875-9.249s0-65.992,0-65.992l61.242,83.239h15.311
			c0,0,0-90.051,0-96.862c0-6.811,4.313-7.312,7.563-7.312c3.248,0,4.436,0,4.436,0v-6.749h-33.994V389.714L1472.776,389.714z"/>
		<path fill="#575757" d="M1578.639,450.831c5.123,0,11.563,0.563,11.563,4.937c0,4.375,0,30.247,0,30.247s-2.803,2.604-12.23,2.604
			c-26.996,0-35.279-21.141-35.279-55.563c0-34.425,15.686-46.258,33.9-46.258c8.648,0,13.646,0.426,19.195,3.585
			c5.063,2.883,6.047,4.711,6.047,9.984c0,5.271,0,5.554,0,5.554h11.039c0,0,0-16.873,0-20.74
			c-2.672-0.703-17.248-5.404-36.045-5.404c-35.797,0-57.992,19.6-57.992,56.595c0,53.191,40.682,58.893,57.617,58.893
			c16.934,0,36.309-4.999,36.309-4.999s0-16.498,0-27.437c0-10.936,2.748-11.936,12.188-11.936v-6.249h-46.309L1578.639,450.831
			L1578.639,450.831z"/>
	</g>
	<path d="M1633.194,315.101c-8.748,0-1126.695,0-1135.075,0s-19.481,3.231-19.481,6.322c0,3.082,9.167,6.448,18.407,6.448
		s1129.401-0.461,1139.899-0.461s17.623-2.875,17.623-6.505C1654.567,317.27,1641.944,315.101,1633.194,315.101z"/>
	<g>
		<path fill="#959595" d="M92.074,455.093c-8.459,0-10.75,7.4-10.75,14.687s0,9.753,0,18.8c0,9.049,3.348,15.979,11.573,15.979
			s9.928-7.402,9.928-16.92h-6.697c0,0-0.118,0.528-0.118,2.818c0,4.643-0.529,6.935-4.229,6.935c-3.701,0-3.643-4.641-3.643-6.875
			c0-2.231,0-8.458,0-8.458h15.098c0,0,0.059-4.701-0.353-12.809C102.472,461.144,100.534,455.093,92.074,455.093z M96.539,474.243
			H88.08c0,0,0-3.35,0-6.346c0-2.995,1.292-5.64,3.701-5.64c2.409,0,4.229,0.999,4.582,4.288
			C96.715,469.838,96.539,474.243,96.539,474.243z"/>
		<path fill="#575757" d="M319.84,497.043c-3.52,0-3.541-7.619-3.541-17.221c0-9.6-0.267-17.218,3.541-17.218
			c2.482,0,3.161,3.887,3.347,9.594h6.524c-0.256-10.021-1.699-17.166-9.755-17.166c-10.925,0-10.163,10.971-10.163,24.79
			c0,13.822,0.06,24.793,10.163,24.793c8.566,0,9.655-8.08,9.791-19.104h-6.514C323.129,492.262,322.595,497.043,319.84,497.043z"/>
		<g>
			<path d="M399.324,455.42c-6.043,0-5.771,6.249-7.145,6.249v-21.335h-6.798v63.36h6.798c0,0-0.017-32.097-0.017-34.739
				c0-2.642,1.351-5.463,3.819-5.463c2.468,0,3.583,1.765,3.583,5.874c0,4.113,0,34.311,0,34.311h6.762c0,0,0-33.149,0-37.891
				C406.329,461.05,405.367,455.42,399.324,455.42z"/>
			<path d="M354.97,468.722c0-7.753-1.525-13.571-10.81-13.571s-10.575,6.815-10.575,14.57h6.404c0-6.403,1.292-7.521,4.404-7.521
				c3.114,0,4.289,1.585,4.289,4.405s-0.646,5.229-2.818,6.64c-2.174,1.411-12.689,4.699-12.689,17.037
				c0,12.336,4.817,14.157,8.342,14.157c3.525,0,6.168-5.347,7.052-5.933c0,1.409,0.409,5.169,1.175,5.169c0.764,0,5.405,0,5.405,0
				s-0.178-1.585-0.178-4.644C354.97,495.981,354.97,476.477,354.97,468.722z M348.332,491.28c0,2.646-1.821,6.17-4.465,6.17
				c-2.646,0-3.938-2.292-3.938-7.58c0-5.283,2.585-7.226,6.697-11.043c0.702-0.65,1.704-1.47,1.704-0.116
				C348.332,480.061,348.332,488.638,348.332,491.28z"/>
			<path d="M366.191,467.194c0-3.289,1.645-4.814,3.817-4.814s3.938,1.406,3.938,7.46c0,0,3.816,0,6.639,0
				c0-10.928-4.171-14.512-10.281-14.512c-6.108,0-10.751,3.994-10.751,10.928s2.997,11.278,6.347,14.568
				c3.349,3.289,8.46,7.696,8.46,11.104s-1.821,5.402-4.817,5.402s-3.29-2.584-3.29-8.811h-6.638
				c0,9.104,2.818,15.979,10.457,15.979c7.637,0,10.633-6.521,10.633-12.57s-1.704-9.046-6.521-13.806
				C369.363,473.362,366.191,470.484,366.191,467.194z"/>
		</g>
		<g>
			<path d="M133.432,455.093c-8.46,0-10.75,7.4-10.75,14.687s0,9.753,0,18.8c0,9.049,3.348,15.979,11.573,15.979
				s9.929-7.402,9.929-16.92h-6.697c0,0-0.118,0.528-0.118,2.818c0,4.643-0.529,6.935-4.229,6.935c-3.702,0-3.643-4.641-3.643-6.875
				c0-2.231,0-8.458,0-8.458h15.098c0,0,0.059-4.701-0.353-12.809C143.831,461.144,141.892,455.093,133.432,455.093z
				 M137.897,474.243h-8.46c0,0,0-3.35,0-6.346c0-2.995,1.293-5.64,3.702-5.64c2.409,0,4.229,0.999,4.582,4.288
				C138.073,469.838,137.897,474.243,137.897,474.243z"/>
			<path d="M159.401,497.043c-3.521,0-3.542-7.619-3.542-17.221c0-9.6-0.266-17.218,3.542-17.218c2.482,0,3.16,3.887,3.346,9.594
				h6.524c-0.256-10.021-1.698-17.166-9.755-17.166c-10.925,0-10.164,10.971-10.164,24.79c0,13.822,0.061,24.793,10.164,24.793
				c8.568,0,9.655-8.08,9.792-19.104h-6.514C162.69,492.262,162.156,497.043,159.401,497.043z"/>
			<path d="M181.312,443.282h-6.638v13.22h-3.231v6.871h3.172c0,0,0,25.439,0,33.253c0,7.813,6.228,7.345,9.458,6.875v-7.402
				c-1.527-0.294-2.82-0.294-2.82-1.998c0-1.702,0-30.783,0-30.783h2.996v-6.813h-2.938L181.312,443.282L181.312,443.282z"/>
			<path d="M196.997,460.85c-0.999,2.174-1.88,4.172-2.467,4.172v-8.461h-6.638l0.059,46.941h7.343c0,0,0-26.438,0-30.314
				s3.936-5.757,7.167-5.347c0,0,0-7.521,0-12.16C199.758,455.681,197.996,458.676,196.997,460.85z"/>
			<path d="M216.733,455.032c-11.805,0-10.983,10.971-10.983,24.79c0,13.822,0.066,24.793,10.983,24.793
				c10.791,0,10.604-10.971,10.604-24.793C227.337,466.003,227.524,455.032,216.733,455.032z M216.415,497.043
				c-4.543,0-4.571-7.619-4.571-17.221c0-9.6-0.342-17.218,4.571-17.218c4.491,0,4.412,7.618,4.412,17.218
				C220.827,489.424,220.906,497.043,216.415,497.043z"/>
			<path d="M283.476,497.043c-3.52,0-3.542-7.619-3.542-17.221c0-9.6-0.265-17.218,3.542-17.218c2.482,0,3.161,3.887,3.347,9.594
				h6.523c-0.256-10.021-1.698-17.166-9.755-17.166c-10.925,0-10.163,10.971-10.163,24.79c0,13.822,0.06,24.793,10.163,24.793
				c8.568,0,9.655-8.08,9.791-19.104h-6.514C286.765,492.262,286.231,497.043,283.476,497.043z"/>
			<path d="M246.749,455.42c-6.043,0-5.769,6.249-7.143,6.249v-5.357h-6.798v47.385h6.798c0,0-0.017-32.097-0.017-34.737
				c0-2.644,1.351-5.465,3.819-5.465c2.467,0,3.584,1.765,3.584,5.874c0,4.113,0,34.311,0,34.311h6.762c0,0,0-33.149,0-37.891
				C253.754,461.05,252.792,455.42,246.749,455.42z"/>
			<rect x="109.587" y="440.601" width="7.064" height="63.278"/>
			<rect x="260.451" y="440.601" width="7.065" height="9.366"/>
			<rect x="260.451" y="456.427" width="7.065" height="47.452"/>
		</g>
		<path d="M259.657,86.781c-20.602,0-37.303,16.699-37.303,37.305v152.583h46.933V86.781H259.657z M222.354,371.942
			c0,20.604,16.701,37.304,37.303,37.304h9.63v-112.75h-46.933V371.942L222.354,371.942z"/>
		<path fill="#575757" d="M406.521,213.094V86.781H269.287v189.888h-46.933v19.828h46.933v112.749h137.235V276.988H329.04v67.521
			h-10.96c-8.829,0-15.986-7.118-15.986-15.898V167.807c0-8.779,7.157-15.9,15.986-15.9h10.959v61.188L406.521,213.094
			L406.521,213.094z"/>
		<path fill="#959595" d="M222.354,371.942v-75.445h-33.833v48.014h-11.435c-8.829,0-15.987-7.118-15.987-15.898V276.67h61.255
			V124.084c0-20.604,16.701-37.305,37.303-37.305H118.662c-20.602,0-37.302,16.699-37.302,37.305v247.856
			c0,20.604,16.701,37.304,37.302,37.304h140.995C239.055,409.244,222.354,392.544,222.354,371.942z M161.099,167.807
			c0-8.779,7.158-15.9,15.987-15.9h11.435v61.436h-27.422V167.807z"/>
		<g>
			<path fill="#959595" d="M68.076,37.554c-20.78,0-37.685,16.862-37.685,37.587v437.242c0,22.13,15.497,37.586,37.685,37.586
				h350.655c22.188,0,37.685-15.456,37.685-37.586V75.141c0-22.131-15.497-37.587-37.685-37.587H68.076z M42.141,512.383V75.141
				c0-14.246,11.634-25.838,25.935-25.838h350.655c15.756,0,25.936,10.143,25.936,25.838v437.242
				c0,15.693-10.18,25.836-25.936,25.836H68.076C52.321,538.219,42.141,528.076,42.141,512.383z"/>
		</g>
	</g>
	<g>
		<path d="M70.291,0C50.703,0,32.914,5.849,20.2,16.469C7.174,27.35,0,42.779,0,59.917v470.385c0,14.546,6.936,28.386,19.53,38.968
			c11.755,9.878,26.953,15.543,41.695,15.543h1559.467c43.34,0,66.016-29.216,66.016-58.075V59.75
			c0-39.229-34.488-59.75-68.557-59.75H70.291z M8,530.302V59.917C8,29.35,33.615,8,70.291,8h1547.86
			c30.094,0,60.557,17.773,60.557,51.75v466.985c0,24.884-19.928,50.075-58.016,50.075H61.225C36.1,576.813,8,556.922,8,530.302z"/>
	</g>
</g>
</svg>
